<?xml version="1.0" encoding="UTF-8" standalone="no"?>
<svg width="279.4mm" height="215.9mm"
 viewBox="0 0 3300 2550"
 xmlns="http://www.w3.org/2000/svg" xmlns:xlink="http://www.w3.org/1999/xlink"  version="1.2" baseProfile="tiny">
<defs>
</defs>
<g fill="none" stroke="black" stroke-width="1" fill-rule="evenodd" stroke-linecap="square" stroke-linejoin="bevel" >

<g fill="#ffffff" fill-opacity="1" stroke="none" transform="matrix(1,0,0,1,0,0)"
font-family="Arial" font-size="12" font-weight="400" font-style="normal" 
>
<rect x="0" y="0" width="3300" height="2550"/>
</g>

<g fill="none" stroke="#000000" stroke-opacity="1" stroke-width="1" stroke-linecap="square" stroke-linejoin="bevel" transform="matrix(1,0,0,1,0,0)"
font-family="Arial" font-size="12" font-weight="400" font-style="normal" 
>
</g>

<g fill="#000000" fill-opacity="1" stroke="#000000" stroke-opacity="1" stroke-width="1" stroke-linecap="butt" stroke-linejoin="miter" stroke-miterlimit="2" transform="matrix(1,0,0,1,0,0)"
font-family="Arial" font-size="12" font-weight="400" font-style="normal" 
>
</g>

<g fill="#000000" fill-opacity="1" stroke="#000000" stroke-opacity="1" stroke-width="5" stroke-linecap="round" stroke-linejoin="bevel" transform="matrix(1,0,0,1,0,0)"
font-family="Arial" font-size="12" font-weight="400" font-style="normal" 
>
<polyline fill="none" vector-effect="none" points="1339.88,990.473 1339.15,990.482 1338.43,990.508 1337.71,990.553 1336.99,990.615 1336.26,990.695 1335.55,990.792 1334.83,990.907 1334.12,991.04 1333.41,991.19 1332.7,991.358 1332,991.542 1331.31,991.744 1330.62,991.963 1329.93,992.199 1329.25,992.451 1328.58,992.72 1327.91,993.006 1327.25,993.308 1326.6,993.626 1325.96,993.959 1325.33,994.309 1324.7,994.674 1324.08,995.054 1323.47,995.449 1322.88,995.859 1322.29,996.284 1321.71,996.722 1321.15,997.175 1320.59,997.642 1320.05,998.122 1319.52,998.615 1319,999.121 1318.49,999.64 1318,1000.17 1317.52,1000.71 1317.05,1001.27 1316.6,1001.83 1316.16,1002.41 1315.74,1003 1315.33,1003.6 1314.93,1004.2 1314.55,1004.82 1314.19,1005.45 1313.84,1006.08 1313.5,1006.72 1313.19,1007.38 1312.88,1008.03 1312.6,1008.7 1312.33,1009.37 1312.08,1010.05 1311.84,1010.74 1311.62,1011.43 1311.42,1012.12 1311.24,1012.83 1311.07,1013.53 1310.92,1014.24 1310.79,1014.95 1310.67,1015.67 1310.57,1016.39 1310.49,1017.11 1310.43,1017.83 1310.39,1018.55 1310.36,1019.28 1310.35,1020 " />
<polyline fill="none" vector-effect="none" points="1971.77,1020 1971.76,1019.29 1971.73,1018.58 1971.69,1017.87 1971.63,1017.16 1971.56,1016.45 1971.46,1015.75 1971.35,1015.04 1971.22,1014.34 1971.08,1013.65 1970.92,1012.95 1970.74,1012.27 1970.54,1011.58 1970.33,1010.9 1970.11,1010.23 1969.86,1009.56 1969.6,1008.9 1969.33,1008.24 1969.04,1007.59 1968.73,1006.95 1968.41,1006.32 1968.07,1005.69 1967.72,1005.07 1967.35,1004.46 1966.97,1003.86 1966.57,1003.27 1966.16,1002.69 1965.74,1002.12 1965.3,1001.56 1964.85,1001.01 1964.39,1000.47 1963.91,999.939 1963.42,999.423 1962.92,998.919 1962.4,998.427 1961.88,997.948 1961.34,997.481 1960.79,997.027 1960.23,996.587 1959.66,996.16 1959.08,995.748 1958.5,995.349 " />
<polyline fill="none" vector-effect="none" points="1995.39,1079.65 1994.69,1079.5 1993.98,1079.33 1993.29,1079.14 1992.59,1078.94 1991.91,1078.72 1991.22,1078.48 1990.55,1078.22 1989.88,1077.95 1989.22,1077.66 1988.56,1077.36 1987.91,1077.04 1987.28,1076.71 1986.64,1076.36 1986.02,1075.99 1985.41,1075.61 1984.8,1075.21 1984.21,1074.8 1983.63,1074.38 1983.05,1073.94 1982.49,1073.49 1981.94,1073.02 1981.4,1072.54 1980.87,1072.05 1980.36,1071.54 1979.86,1071.02 1979.37,1070.49 1978.89,1069.95 1978.42,1069.4 1977.97,1068.83 1977.54,1068.26 1977.12,1067.67 1976.71,1067.07 1976.32,1066.47 1975.94,1065.85 1975.58,1065.23 1975.23,1064.59 1974.9,1063.95 1974.58,1063.3 1974.28,1062.65 1974,1061.98 1973.73,1061.31 1973.48,1060.63 1973.25,1059.95 1973.03,1059.26 1972.83,1058.57 1972.65,1057.87 1972.48,1057.17 1972.33,1056.46 1972.2,1055.75 1972.09,1055.04 1971.99,1054.32 1971.91,1053.6 1971.85,1052.89 1971.8,1052.16 1971.78,1051.44 1971.77,1050.72 " />
<polyline fill="none" vector-effect="none" points="2019.01,1108.58 2019,1107.86 2018.98,1107.14 2018.93,1106.42 2018.87,1105.7 2018.79,1104.98 2018.7,1104.27 2018.58,1103.55 2018.45,1102.84 2018.3,1102.14 2018.13,1101.43 2017.95,1100.74 2017.75,1100.04 2017.53,1099.35 2017.3,1098.67 2017.05,1097.99 2016.78,1097.32 2016.5,1096.66 2016.2,1096 2015.88,1095.35 2015.55,1094.71 2015.2,1094.08 2014.84,1093.45 2014.46,1092.84 2014.07,1092.23 2013.66,1091.63 2013.24,1091.05 2012.81,1090.47 2012.36,1089.91 2011.89,1089.35 2011.42,1088.81 2010.93,1088.28 2010.42,1087.76 2009.91,1087.26 2009.38,1086.76 2008.84,1086.28 2008.29,1085.82 2007.73,1085.37 2007.16,1084.93 2006.57,1084.5 2005.98,1084.09 2005.37,1083.69 2004.76,1083.31 2004.14,1082.95 2003.51,1082.6 2002.87,1082.26 2002.22,1081.94 2001.56,1081.64 2000.9,1081.35 2000.23,1081.08 1999.56,1080.83 1998.88,1080.59 1998.19,1080.37 1997.5,1080.16 1996.8,1079.98 1996.1,1079.81 1995.39,1079.65 " />
<polyline fill="none" vector-effect="none" points="1995.39,1314.68 1996.1,1314.53 1996.8,1314.36 1997.5,1314.17 1998.19,1313.96 1998.88,1313.74 1999.56,1313.51 2000.23,1313.25 2000.9,1312.98 2001.56,1312.69 2002.22,1312.39 2002.87,1312.07 2003.51,1311.73 2004.14,1311.38 2004.76,1311.02 2005.37,1310.64 2005.98,1310.24 2006.57,1309.83 2007.16,1309.41 2007.73,1308.97 2008.29,1308.51 2008.84,1308.05 2009.38,1307.57 2009.91,1307.07 2010.42,1306.57 2010.93,1306.05 2011.42,1305.52 2011.89,1304.98 2012.36,1304.42 2012.81,1303.86 2013.24,1303.28 2013.66,1302.7 2014.07,1302.1 2014.46,1301.49 2014.84,1300.88 2015.2,1300.25 2015.55,1299.62 2015.88,1298.98 2016.2,1298.33 2016.5,1297.67 2016.78,1297.01 2017.05,1296.34 2017.3,1295.66 2017.53,1294.98 2017.75,1294.29 2017.95,1293.6 2018.13,1292.9 2018.3,1292.19 2018.45,1291.49 2018.58,1290.78 2018.7,1290.07 2018.79,1289.35 2018.87,1288.63 2018.93,1287.91 2018.98,1287.19 2019,1286.47 2019.01,1285.75 " />
<polyline fill="none" vector-effect="none" points="1971.77,1343.61 1971.78,1342.89 1971.8,1342.17 1971.85,1341.45 1971.91,1340.73 1971.99,1340.01 1972.09,1339.29 1972.2,1338.58 1972.33,1337.87 1972.48,1337.16 1972.65,1336.46 1972.83,1335.76 1973.03,1335.07 1973.25,1334.38 1973.48,1333.7 1973.73,1333.02 1974,1332.35 1974.28,1331.69 1974.58,1331.03 1974.9,1330.38 1975.23,1329.74 1975.58,1329.1 1975.94,1328.48 1976.32,1327.86 1976.71,1327.26 1977.12,1326.66 1977.54,1326.08 1977.97,1325.5 1978.42,1324.94 1978.89,1324.38 1979.37,1323.84 1979.86,1323.31 1980.36,1322.79 1980.87,1322.29 1981.4,1321.79 1981.94,1321.31 1982.49,1320.85 1983.05,1320.39 1983.63,1319.95 1984.21,1319.53 1984.8,1319.12 1985.41,1318.72 1986.02,1318.34 1986.64,1317.97 1987.28,1317.62 1987.91,1317.29 1988.56,1316.97 1989.22,1316.67 1989.88,1316.38 1990.55,1316.11 1991.22,1315.85 1991.91,1315.62 1992.59,1315.39 1993.29,1315.19 1993.98,1315 1994.69,1314.83 1995.39,1314.68 " />
<polyline fill="none" vector-effect="none" points="1958.5,1398.98 1959.08,1398.58 1959.66,1398.17 1960.23,1397.74 1960.79,1397.3 1961.34,1396.85 1961.88,1396.38 1962.4,1395.9 1962.92,1395.41 1963.42,1394.91 1963.91,1394.39 1964.39,1393.86 1964.85,1393.32 1965.3,1392.77 1965.74,1392.21 1966.16,1391.64 1966.57,1391.06 1966.97,1390.47 1967.35,1389.87 1967.72,1389.26 1968.07,1388.64 1968.41,1388.02 1968.73,1387.38 1969.04,1386.74 1969.33,1386.09 1969.6,1385.43 1969.86,1384.77 1970.11,1384.1 1970.33,1383.43 1970.54,1382.75 1970.74,1382.07 1970.92,1381.38 1971.08,1380.68 1971.22,1379.99 1971.35,1379.29 1971.46,1378.58 1971.56,1377.88 1971.63,1377.17 1971.69,1376.46 1971.73,1375.75 1971.76,1375.04 1971.77,1374.33 " />
<polyline fill="none" vector-effect="none" points="1310.35,1374.33 1310.36,1375.06 1310.39,1375.78 1310.43,1376.5 1310.49,1377.23 1310.57,1377.95 1310.67,1378.66 1310.79,1379.38 1310.92,1380.09 1311.07,1380.8 1311.24,1381.51 1311.42,1382.21 1311.62,1382.9 1311.84,1383.59 1312.08,1384.28 1312.33,1384.96 1312.6,1385.63 1312.88,1386.3 1313.19,1386.96 1313.5,1387.61 1313.84,1388.25 1314.19,1388.89 1314.55,1389.51 1314.93,1390.13 1315.33,1390.74 1315.74,1391.33 1316.16,1391.92 1316.6,1392.5 1317.05,1393.06 1317.52,1393.62 1318,1394.16 1318.49,1394.69 1319,1395.21 1319.52,1395.72 1320.05,1396.21 1320.59,1396.69 1321.15,1397.16 1321.71,1397.61 1322.29,1398.05 1322.88,1398.47 1323.47,1398.88 1324.08,1399.28 1324.7,1399.66 1325.33,1400.02 1325.96,1400.37 1326.6,1400.71 1327.25,1401.02 1327.91,1401.33 1328.58,1401.61 1329.25,1401.88 1329.93,1402.13 1330.62,1402.37 1331.31,1402.59 1332,1402.79 1332.7,1402.97 1333.41,1403.14 1334.12,1403.29 1334.83,1403.42 1335.55,1403.54 1336.26,1403.64 1336.99,1403.72 1337.71,1403.78 1338.43,1403.82 1339.15,1403.85 1339.88,1403.86 " />
<polyline fill="none" vector-effect="none" points="1658.91,1093.81 1659.64,1093.82 1660.36,1093.85 1661.08,1093.89 1661.81,1093.95 1662.53,1094.03 1663.24,1094.13 1663.96,1094.25 1664.67,1094.38 1665.38,1094.53 1666.09,1094.7 1666.79,1094.88 1667.48,1095.08 1668.17,1095.3 1668.86,1095.54 1669.54,1095.79 1670.21,1096.06 1670.88,1096.34 1671.54,1096.65 1672.19,1096.96 1672.83,1097.3 1673.47,1097.65 1674.09,1098.01 1674.71,1098.39 1675.32,1098.79 1675.91,1099.2 1676.5,1099.62 1677.08,1100.06 1677.64,1100.51 1678.2,1100.98 1678.74,1101.46 1679.27,1101.95 1679.79,1102.46 1680.3,1102.98 1680.79,1103.51 1681.27,1104.05 1681.74,1104.61 1682.19,1105.17 1682.63,1105.75 1683.05,1106.34 1683.46,1106.93 1683.86,1107.54 1684.24,1108.16 1684.6,1108.78 1684.95,1109.42 1685.29,1110.06 1685.6,1110.71 1685.91,1111.37 1686.19,1112.04 1686.46,1112.71 1686.71,1113.39 1686.95,1114.08 1687.17,1114.77 1687.37,1115.46 1687.55,1116.16 1687.72,1116.87 1687.87,1117.58 1688,1118.29 1688.12,1119.01 1688.22,1119.72 1688.3,1120.44 1688.36,1121.17 1688.4,1121.89 1688.43,1122.61 1688.44,1123.34 " />
<polyline fill="none" vector-effect="none" points="1481.75,1123.34 1481.76,1122.61 1481.78,1121.89 1481.83,1121.17 1481.89,1120.44 1481.97,1119.72 1482.07,1119.01 1482.18,1118.29 1482.31,1117.58 1482.46,1116.87 1482.63,1116.16 1482.82,1115.46 1483.02,1114.77 1483.24,1114.08 1483.47,1113.39 1483.73,1112.71 1483.99,1112.04 1484.28,1111.37 1484.58,1110.71 1484.9,1110.06 1485.23,1109.42 1485.58,1108.78 1485.95,1108.16 1486.33,1107.54 1486.72,1106.93 1487.13,1106.34 1487.56,1105.75 1488,1105.17 1488.45,1104.61 1488.92,1104.05 1489.4,1103.51 1489.89,1102.98 1490.39,1102.46 1490.91,1101.95 1491.44,1101.46 1491.99,1100.98 1492.54,1100.51 1493.11,1100.06 1493.68,1099.62 1494.27,1099.2 1494.87,1098.79 1495.48,1098.39 1496.09,1098.01 1496.72,1097.65 1497.35,1097.3 1498,1096.96 1498.65,1096.65 1499.31,1096.34 1499.97,1096.06 1500.65,1095.79 1501.33,1095.54 1502.01,1095.3 1502.7,1095.08 1503.4,1094.88 1504.1,1094.7 1504.8,1094.53 1505.51,1094.38 1506.23,1094.25 1506.94,1094.13 1507.66,1094.03 1508.38,1093.95 1509.1,1093.89 1509.83,1093.85 1510.55,1093.82 1511.27,1093.81 " />
<polyline fill="none" vector-effect="none" points="1511.27,1300.5 1510.55,1300.49 1509.83,1300.47 1509.1,1300.42 1508.38,1300.36 1507.66,1300.28 1506.94,1300.18 1506.23,1300.07 1505.51,1299.94 1504.8,1299.79 1504.1,1299.62 1503.4,1299.43 1502.7,1299.23 1502.01,1299.01 1501.33,1298.78 1500.65,1298.53 1499.97,1298.26 1499.31,1297.97 1498.65,1297.67 1498,1297.35 1497.35,1297.02 1496.72,1296.67 1496.09,1296.3 1495.48,1295.92 1494.87,1295.53 1494.27,1295.12 1493.68,1294.69 1493.11,1294.25 1492.54,1293.8 1491.99,1293.33 1491.44,1292.85 1490.91,1292.36 1490.39,1291.86 1489.89,1291.34 1489.4,1290.81 1488.92,1290.26 1488.45,1289.71 1488,1289.14 1487.56,1288.57 1487.13,1287.98 1486.72,1287.38 1486.33,1286.77 1485.95,1286.16 1485.58,1285.53 1485.23,1284.9 1484.9,1284.25 1484.58,1283.6 1484.28,1282.94 1483.99,1282.28 1483.73,1281.6 1483.47,1280.92 1483.24,1280.24 1483.02,1279.55 1482.82,1278.85 1482.63,1278.15 1482.46,1277.45 1482.31,1276.74 1482.18,1276.02 1482.07,1275.31 1481.97,1274.59 1481.89,1273.87 1481.83,1273.15 1481.78,1272.42 1481.76,1271.7 1481.75,1270.98 " />
<polyline fill="none" vector-effect="none" points="1688.44,1270.98 1688.43,1271.7 1688.4,1272.42 1688.36,1273.15 1688.3,1273.87 1688.22,1274.59 1688.12,1275.31 1688,1276.02 1687.87,1276.74 1687.72,1277.45 1687.55,1278.15 1687.37,1278.85 1687.17,1279.55 1686.95,1280.24 1686.71,1280.92 1686.46,1281.6 1686.19,1282.28 1685.91,1282.94 1685.6,1283.6 1685.29,1284.25 1684.95,1284.9 1684.6,1285.53 1684.24,1286.16 1683.86,1286.77 1683.46,1287.38 1683.05,1287.98 1682.63,1288.57 1682.19,1289.14 1681.74,1289.71 1681.27,1290.26 1680.79,1290.81 1680.3,1291.34 1679.79,1291.86 1679.27,1292.36 1678.74,1292.85 1678.2,1293.33 1677.64,1293.8 1677.08,1294.25 1676.5,1294.69 1675.91,1295.12 1675.32,1295.53 1674.71,1295.92 1674.09,1296.3 1673.47,1296.67 1672.83,1297.02 1672.19,1297.35 1671.54,1297.67 1670.88,1297.97 1670.21,1298.26 1669.54,1298.53 1668.86,1298.78 1668.17,1299.01 1667.48,1299.23 1666.79,1299.43 1666.09,1299.62 1665.38,1299.79 1664.67,1299.94 1663.96,1300.07 1663.24,1300.18 1662.53,1300.28 1661.81,1300.36 1661.08,1300.42 1660.36,1300.47 1659.64,1300.49 1658.91,1300.5 " />
<polyline fill="none" vector-effect="none" points="1428.46,990.473 1404.84,990.473 " />
<polyline fill="none" vector-effect="none" points="1345.78,1197.16 1345.78,1196.76 1345.76,1196.37 1345.73,1195.97 1345.68,1195.58 1345.62,1195.19 1345.55,1194.8 1345.46,1194.42 1345.37,1194.04 1345.25,1193.66 1345.13,1193.28 1345,1192.91 1344.85,1192.55 1344.69,1192.19 1344.52,1191.83 1344.33,1191.48 1344.14,1191.14 1343.93,1190.8 1343.71,1190.47 1343.48,1190.15 1343.24,1189.84 1342.99,1189.53 1342.73,1189.23 1342.46,1188.95 1342.18,1188.67 1341.9,1188.4 1341.6,1188.14 1341.29,1187.89 1340.98,1187.65 1340.66,1187.42 1340.33,1187.2 1339.99,1186.99 1339.65,1186.8 1339.3,1186.62 1338.95,1186.44 1338.58,1186.28 1338.22,1186.14 1337.85,1186 1337.47,1185.88 1337.09,1185.77 1336.71,1185.67 1336.33,1185.58 1335.94,1185.51 1335.55,1185.45 1335.16,1185.41 1334.76,1185.37 1334.37,1185.35 1333.97,1185.35 1333.58,1185.35 1333.18,1185.37 1332.79,1185.41 1332.4,1185.45 1332.01,1185.51 1331.62,1185.58 1331.24,1185.67 1330.85,1185.77 1330.47,1185.88 1330.1,1186 1329.73,1186.14 1329.36,1186.28 1329,1186.44 1328.65,1186.62 1328.3,1186.8 1327.95,1186.99 1327.62,1187.2 1327.29,1187.42 1326.97,1187.65 1326.65,1187.89 1326.35,1188.14 1326.05,1188.4 1325.76,1188.67 1325.48,1188.95 1325.21,1189.23 1324.95,1189.53 1324.7,1189.84 1324.47,1190.15 1324.24,1190.47 1324.02,1190.8 1323.81,1191.14 1323.62,1191.48 1323.43,1191.83 1323.26,1192.19 1323.1,1192.55 1322.95,1192.91 1322.82,1193.28 1322.69,1193.66 1322.58,1194.04 1322.48,1194.42 1322.4,1194.8 1322.33,1195.19 1322.27,1195.58 1322.22,1195.97 1322.19,1196.37 1322.17,1196.76 1322.16,1197.16 1322.17,1197.55 1322.19,1197.95 1322.22,1198.34 1322.27,1198.73 1322.33,1199.12 1322.4,1199.51 1322.48,1199.9 1322.58,1200.28 1322.69,1200.66 1322.82,1201.03 1322.95,1201.4 1323.1,1201.77 1323.26,1202.13 1323.43,1202.48 1323.62,1202.83 1323.81,1203.18 1324.02,1203.51 1324.24,1203.84 1324.47,1204.16 1324.7,1204.48 1324.95,1204.78 1325.21,1205.08 1325.48,1205.37 1325.76,1205.65 1326.05,1205.92 1326.35,1206.18 1326.65,1206.43 1326.97,1206.67 1327.29,1206.89 1327.62,1207.11 1327.95,1207.32 1328.3,1207.51 1328.65,1207.7 1329,1207.87 1329.36,1208.03 1329.73,1208.18 1330.1,1208.31 1330.47,1208.44 1330.85,1208.55 1331.24,1208.65 1331.62,1208.73 1332.01,1208.8 1332.4,1208.86 1332.79,1208.91 1333.18,1208.94 1333.58,1208.96 1333.97,1208.97 1334.37,1208.96 1334.76,1208.94 1335.16,1208.91 1335.55,1208.86 1335.94,1208.8 1336.33,1208.73 1336.71,1208.65 1337.09,1208.55 1337.47,1208.44 1337.85,1208.31 1338.22,1208.18 1338.58,1208.03 1338.95,1207.87 1339.3,1207.7 1339.65,1207.51 1339.99,1207.32 1340.33,1207.11 1340.66,1206.89 1340.98,1206.67 1341.29,1206.43 1341.6,1206.18 1341.9,1205.92 1342.18,1205.65 1342.46,1205.37 1342.73,1205.08 1342.99,1204.78 1343.24,1204.48 1343.48,1204.16 1343.71,1203.84 1343.93,1203.51 1344.14,1203.18 1344.33,1202.83 1344.52,1202.48 1344.69,1202.13 1344.85,1201.77 1345,1201.4 1345.13,1201.03 1345.25,1200.66 1345.37,1200.28 1345.46,1199.9 1345.55,1199.51 1345.62,1199.12 1345.68,1198.73 1345.73,1198.34 1345.76,1197.95 1345.78,1197.55 1345.78,1197.16 " />
</g>

<g fill="#000000" fill-opacity="1" stroke="#000000" stroke-opacity="1" stroke-width="2" stroke-linecap="round" stroke-linejoin="bevel" transform="matrix(1,0,0,1,0,0)"
font-family="Arial" font-size="12" font-weight="400" font-style="normal" 
>
<polyline fill="none" vector-effect="none" points="1320.47,1197.16 1347.47,1197.16 " />
<polyline fill="none" vector-effect="none" points="1333.97,1210.66 1333.97,1183.66 " />
<polyline fill="none" vector-effect="none" points="1306.97,1197.16 1295.16,1197.16 " />
<polyline fill="none" vector-effect="none" points="1360.97,1197.16 1372.78,1197.16 " />
<polyline fill="none" vector-effect="none" points="1333.97,1170.16 1333.97,1158.35 " />
<polyline fill="none" vector-effect="none" points="1333.97,1224.16 1333.97,1235.97 " />
</g>

<g fill="#000000" fill-opacity="1" stroke="#000000" stroke-opacity="1" stroke-width="5" stroke-linecap="round" stroke-linejoin="bevel" transform="matrix(1,0,0,1,0,0)"
font-family="Arial" font-size="12" font-weight="400" font-style="normal" 
>
<polyline fill="none" vector-effect="none" points="1942.24,1368.43 1942.25,1368.08 1942.27,1367.74 1942.3,1367.4 1942.35,1367.06 1942.41,1366.72 1942.48,1366.38 1942.57,1366.05 1942.66,1365.72 1942.78,1365.4 1942.9,1365.08 1943.04,1364.76 1943.18,1364.45 1943.34,1364.15 1943.52,1363.85 1943.7,1363.56 1943.89,1363.27 1944.1,1363 1944.31,1362.73 1944.54,1362.47 1944.78,1362.22 1945.02,1361.98 1945.28,1361.75 1945.54,1361.53 1945.81,1361.32 1946.09,1361.12 1946.38,1360.93 1946.67,1360.75 1946.97,1360.59 1947.28,1360.43 1947.59,1360.29 1947.91,1360.16 1948.23,1360.04 1948.56,1359.94 1948.89,1359.85 1949.22,1359.77 1949.56,1359.7 1949.9,1359.65 1950.24,1359.61 1950.58,1359.58 1950.93,1359.57 1951.27,1359.57 1951.61,1359.58 1951.96,1359.61 1952.3,1359.65 1952.64,1359.7 1952.98,1359.77 1953.31,1359.85 1953.64,1359.94 1953.97,1360.04 1954.29,1360.16 1954.61,1360.29 1954.92,1360.43 1955.23,1360.59 1955.53,1360.75 1955.82,1360.93 1956.11,1361.12 1956.39,1361.32 1956.66,1361.53 1956.92,1361.75 1957.18,1361.98 1957.42,1362.22 1957.66,1362.47 1957.89,1362.73 1958.1,1363 1958.31,1363.27 1958.5,1363.56 1958.68,1363.85 1958.86,1364.15 1959.02,1364.45 1959.16,1364.76 1959.3,1365.08 1959.42,1365.4 1959.54,1365.72 1959.63,1366.05 1959.72,1366.38 1959.79,1366.72 1959.85,1367.06 1959.9,1367.4 1959.93,1367.74 1959.95,1368.08 1959.96,1368.43 1959.95,1368.77 1959.93,1369.11 1959.9,1369.45 1959.85,1369.79 1959.79,1370.13 1959.72,1370.47 1959.63,1370.8 1959.54,1371.13 1959.42,1371.46 1959.3,1371.78 1959.16,1372.09 1959.02,1372.4 1958.86,1372.71 1958.68,1373 1958.5,1373.29 1958.31,1373.58 1958.1,1373.85 1957.89,1374.12 1957.66,1374.38 1957.42,1374.63 1957.18,1374.87 1956.92,1375.1 1956.66,1375.32 1956.39,1375.53 1956.11,1375.73 1955.82,1375.92 1955.53,1376.1 1955.23,1376.26 1954.92,1376.42 1954.61,1376.56 1954.29,1376.69 1953.97,1376.81 1953.64,1376.91 1953.31,1377 1952.98,1377.08 1952.64,1377.15 1952.3,1377.2 1951.96,1377.24 1951.61,1377.27 1951.27,1377.28 1950.93,1377.28 1950.58,1377.27 1950.24,1377.24 1949.9,1377.2 1949.56,1377.15 1949.22,1377.08 1948.89,1377 1948.56,1376.91 1948.23,1376.81 1947.91,1376.69 1947.59,1376.56 1947.28,1376.42 1946.97,1376.26 1946.67,1376.1 1946.38,1375.92 1946.09,1375.73 1945.81,1375.53 1945.54,1375.32 1945.28,1375.1 1945.02,1374.87 1944.78,1374.63 1944.54,1374.38 1944.31,1374.12 1944.1,1373.85 1943.89,1373.58 1943.7,1373.29 1943.52,1373 1943.34,1372.71 1943.18,1372.4 1943.04,1372.09 1942.9,1371.78 1942.78,1371.46 1942.66,1371.13 1942.57,1370.8 1942.48,1370.47 1942.41,1370.13 1942.35,1369.79 1942.3,1369.45 1942.27,1369.11 1942.25,1368.77 1942.24,1368.43 " />
</g>

<g fill="#000000" fill-opacity="1" stroke="#000000" stroke-opacity="1" stroke-width="2" stroke-linecap="round" stroke-linejoin="bevel" transform="matrix(1,0,0,1,0,0)"
font-family="Arial" font-size="12" font-weight="400" font-style="normal" 
>
<polyline fill="none" vector-effect="none" points="1937.6,1368.43 1964.6,1368.43 " />
<polyline fill="none" vector-effect="none" points="1951.1,1381.93 1951.1,1354.93 " />
<polyline fill="none" vector-effect="none" points="1924.1,1368.43 1915.24,1368.43 " />
<polyline fill="none" vector-effect="none" points="1978.1,1368.43 1986.96,1368.43 " />
<polyline fill="none" vector-effect="none" points="1951.1,1341.43 1951.1,1332.57 " />
<polyline fill="none" vector-effect="none" points="1951.1,1395.43 1951.1,1404.28 " />
</g>

<g fill="#000000" fill-opacity="1" stroke="#000000" stroke-opacity="1" stroke-width="5" stroke-linecap="round" stroke-linejoin="bevel" transform="matrix(1,0,0,1,0,0)"
font-family="Arial" font-size="12" font-weight="400" font-style="normal" 
>
<polyline fill="none" vector-effect="none" points="1971.77,1197.17 1971.76,1196.77 1971.74,1196.38 1971.71,1195.98 1971.66,1195.59 1971.6,1195.2 1971.53,1194.81 1971.45,1194.43 1971.35,1194.05 1971.24,1193.67 1971.12,1193.29 1970.98,1192.92 1970.83,1192.55 1970.67,1192.19 1970.5,1191.84 1970.32,1191.49 1970.12,1191.15 1969.91,1190.81 1969.7,1190.48 1969.47,1190.16 1969.23,1189.85 1968.98,1189.54 1968.72,1189.24 1968.45,1188.95 1968.17,1188.68 1967.88,1188.41 1967.58,1188.15 1967.28,1187.9 1966.96,1187.66 1966.64,1187.43 1966.31,1187.21 1965.98,1187 1965.63,1186.81 1965.28,1186.62 1964.93,1186.45 1964.57,1186.29 1964.2,1186.14 1963.83,1186.01 1963.46,1185.88 1963.08,1185.77 1962.7,1185.68 1962.31,1185.59 1961.92,1185.52 1961.53,1185.46 1961.14,1185.41 1960.75,1185.38 1960.35,1185.36 1959.96,1185.35 1959.56,1185.36 1959.17,1185.38 1958.78,1185.41 1958.38,1185.46 1957.99,1185.52 1957.61,1185.59 1957.22,1185.68 1956.84,1185.77 1956.46,1185.88 1956.08,1186.01 1955.71,1186.14 1955.35,1186.29 1954.99,1186.45 1954.63,1186.62 1954.28,1186.81 1953.94,1187 1953.6,1187.21 1953.27,1187.43 1952.95,1187.66 1952.64,1187.9 1952.33,1188.15 1952.04,1188.41 1951.75,1188.68 1951.47,1188.95 1951.2,1189.24 1950.94,1189.54 1950.69,1189.85 1950.45,1190.16 1950.22,1190.48 1950,1190.81 1949.8,1191.15 1949.6,1191.49 1949.42,1191.84 1949.24,1192.19 1949.08,1192.55 1948.94,1192.92 1948.8,1193.29 1948.68,1193.67 1948.57,1194.05 1948.47,1194.43 1948.38,1194.81 1948.31,1195.2 1948.25,1195.59 1948.21,1195.98 1948.17,1196.38 1948.15,1196.77 1948.15,1197.17 1948.15,1197.56 1948.17,1197.95 1948.21,1198.35 1948.25,1198.74 1948.31,1199.13 1948.38,1199.52 1948.47,1199.9 1948.57,1200.29 1948.68,1200.66 1948.8,1201.04 1948.94,1201.41 1949.08,1201.78 1949.24,1202.14 1949.42,1202.49 1949.6,1202.84 1949.8,1203.18 1950,1203.52 1950.22,1203.85 1950.45,1204.17 1950.69,1204.49 1950.94,1204.79 1951.2,1205.09 1951.47,1205.38 1951.75,1205.66 1952.04,1205.93 1952.33,1206.19 1952.64,1206.43 1952.95,1206.67 1953.27,1206.9 1953.6,1207.12 1953.94,1207.33 1954.28,1207.52 1954.63,1207.71 1954.99,1207.88 1955.35,1208.04 1955.71,1208.19 1956.08,1208.32 1956.46,1208.45 1956.84,1208.56 1957.22,1208.65 1957.61,1208.74 1957.99,1208.81 1958.38,1208.87 1958.78,1208.92 1959.17,1208.95 1959.56,1208.97 1959.96,1208.98 1960.35,1208.97 1960.75,1208.95 1961.14,1208.92 1961.53,1208.87 1961.92,1208.81 1962.31,1208.74 1962.7,1208.65 1963.08,1208.56 1963.46,1208.45 1963.83,1208.32 1964.2,1208.19 1964.57,1208.04 1964.93,1207.88 1965.28,1207.71 1965.63,1207.52 1965.98,1207.33 1966.31,1207.12 1966.64,1206.9 1966.96,1206.67 1967.28,1206.43 1967.58,1206.19 1967.88,1205.93 1968.17,1205.66 1968.45,1205.38 1968.72,1205.09 1968.98,1204.79 1969.23,1204.49 1969.47,1204.17 1969.7,1203.85 1969.91,1203.52 1970.12,1203.18 1970.32,1202.84 1970.5,1202.49 1970.67,1202.14 1970.83,1201.78 1970.98,1201.41 1971.12,1201.04 1971.24,1200.66 1971.35,1200.29 1971.45,1199.9 1971.53,1199.52 1971.6,1199.13 1971.66,1198.74 1971.71,1198.35 1971.74,1197.95 1971.76,1197.56 1971.77,1197.17 " />
</g>

<g fill="#000000" fill-opacity="1" stroke="#000000" stroke-opacity="1" stroke-width="2" stroke-linecap="round" stroke-linejoin="bevel" transform="matrix(1,0,0,1,0,0)"
font-family="Arial" font-size="12" font-weight="400" font-style="normal" 
>
<polyline fill="none" vector-effect="none" points="1946.46,1197.17 1973.46,1197.17 " />
<polyline fill="none" vector-effect="none" points="1959.96,1210.67 1959.96,1183.67 " />
<polyline fill="none" vector-effect="none" points="1932.96,1197.17 1921.15,1197.17 " />
<polyline fill="none" vector-effect="none" points="1986.96,1197.17 1998.77,1197.17 " />
<polyline fill="none" vector-effect="none" points="1959.96,1170.17 1959.96,1158.35 " />
<polyline fill="none" vector-effect="none" points="1959.96,1224.17 1959.96,1235.98 " />
</g>

<g fill="#000000" fill-opacity="1" stroke="#000000" stroke-opacity="1" stroke-width="5" stroke-linecap="round" stroke-linejoin="bevel" transform="matrix(1,0,0,1,0,0)"
font-family="Arial" font-size="12" font-weight="400" font-style="normal" 
>
<polyline fill="none" vector-effect="none" points="1900.9,1049.53 1900.9,1049.25 1900.88,1048.97 1900.84,1048.69 1900.8,1048.42 1900.74,1048.15 1900.67,1047.88 1900.58,1047.61 1900.49,1047.35 1900.38,1047.09 1900.26,1046.84 1900.12,1046.6 1899.98,1046.36 1899.82,1046.12 1899.66,1045.9 1899.48,1045.68 1899.29,1045.48 1899.1,1045.28 1898.89,1045.09 1898.68,1044.91 1898.46,1044.74 1898.23,1044.58 1897.99,1044.44 1897.75,1044.3 1897.5,1044.18 1897.24,1044.07 1896.98,1043.97 1896.72,1043.88 1896.45,1043.8 1896.18,1043.74 1895.9,1043.69 1895.62,1043.66 1895.35,1043.63 1895.07,1043.62 1894.79,1043.63 1894.51,1043.64 1894.23,1043.67 1893.96,1043.71 1893.68,1043.77 1893.41,1043.84 1893.15,1043.92 1892.88,1044.01 1892.63,1044.12 1892.37,1044.24 1892.13,1044.37 1891.89,1044.51 1891.65,1044.66 1891.43,1044.83 1891.21,1045 1891,1045.18 1890.8,1045.38 1890.61,1045.58 1890.42,1045.79 1890.25,1046.01 1890.09,1046.24 1889.94,1046.48 1889.8,1046.72 1889.68,1046.97 1889.56,1047.22 1889.46,1047.48 1889.37,1047.74 1889.29,1048.01 1889.22,1048.28 1889.17,1048.56 1889.13,1048.83 1889.11,1049.11 1889.09,1049.39 1889.09,1049.67 1889.11,1049.95 1889.13,1050.22 1889.17,1050.5 1889.22,1050.77 1889.29,1051.05 1889.37,1051.31 1889.46,1051.58 1889.56,1051.84 1889.68,1052.09 1889.8,1052.34 1889.94,1052.58 1890.09,1052.82 1890.25,1053.04 1890.42,1053.26 1890.61,1053.48 1890.8,1053.68 1891,1053.87 1891.21,1054.06 1891.43,1054.23 1891.65,1054.39 1891.89,1054.55 1892.13,1054.69 1892.37,1054.82 1892.63,1054.94 1892.88,1055.04 1893.15,1055.14 1893.41,1055.22 1893.68,1055.29 1893.96,1055.34 1894.23,1055.38 1894.51,1055.41 1894.79,1055.43 1895.07,1055.43 1895.35,1055.42 1895.62,1055.4 1895.9,1055.36 1896.18,1055.31 1896.45,1055.25 1896.72,1055.18 1896.98,1055.09 1897.24,1054.99 1897.5,1054.88 1897.75,1054.75 1897.99,1054.62 1898.23,1054.47 1898.46,1054.31 1898.68,1054.14 1898.89,1053.97 1899.1,1053.78 1899.29,1053.58 1899.48,1053.37 1899.66,1053.16 1899.82,1052.93 1899.98,1052.7 1900.12,1052.46 1900.26,1052.22 1900.38,1051.96 1900.49,1051.71 1900.58,1051.45 1900.67,1051.18 1900.74,1050.91 1900.8,1050.64 1900.84,1050.36 1900.88,1050.09 1900.9,1049.81 1900.9,1049.53 " />
</g>

<g fill="#000000" fill-opacity="1" stroke="#000000" stroke-opacity="1" stroke-width="2" stroke-linecap="round" stroke-linejoin="bevel" transform="matrix(1,0,0,1,0,0)"
font-family="Arial" font-size="12" font-weight="400" font-style="normal" 
>
<polyline fill="none" vector-effect="none" points="1881.5,1049.53 1908.5,1049.53 " />
<polyline fill="none" vector-effect="none" points="1895,1063.03 1895,1036.03 " />
<polyline fill="none" vector-effect="none" points="1868,1049.53 1862.09,1049.53 " />
<polyline fill="none" vector-effect="none" points="1922,1049.53 1927.9,1049.53 " />
<polyline fill="none" vector-effect="none" points="1895,1022.53 1895,1016.62 " />
<polyline fill="none" vector-effect="none" points="1895,1076.53 1895,1082.43 " />
</g>

<g fill="#000000" fill-opacity="1" stroke="#000000" stroke-opacity="1" stroke-width="5" stroke-linecap="round" stroke-linejoin="bevel" transform="matrix(1,0,0,1,0,0)"
font-family="Arial" font-size="12" font-weight="400" font-style="normal" 
>
<polyline fill="none" vector-effect="none" points="1877.28,1049.53 1877.27,1049.25 1877.25,1048.97 1877.22,1048.69 1877.18,1048.42 1877.12,1048.15 1877.05,1047.88 1876.96,1047.61 1876.86,1047.35 1876.76,1047.09 1876.63,1046.84 1876.5,1046.6 1876.36,1046.36 1876.2,1046.12 1876.04,1045.9 1875.86,1045.68 1875.67,1045.48 1875.48,1045.28 1875.27,1045.09 1875.06,1044.91 1874.84,1044.74 1874.61,1044.58 1874.37,1044.44 1874.12,1044.3 1873.87,1044.18 1873.62,1044.07 1873.36,1043.97 1873.09,1043.88 1872.83,1043.8 1872.55,1043.74 1872.28,1043.69 1872,1043.66 1871.72,1043.63 1871.45,1043.62 1871.17,1043.63 1870.89,1043.64 1870.61,1043.67 1870.33,1043.71 1870.06,1043.77 1869.79,1043.84 1869.52,1043.92 1869.26,1044.01 1869,1044.12 1868.75,1044.24 1868.5,1044.37 1868.26,1044.51 1868.03,1044.66 1867.8,1044.83 1867.59,1045 1867.38,1045.18 1867.18,1045.38 1866.98,1045.58 1866.8,1045.79 1866.63,1046.01 1866.47,1046.24 1866.32,1046.48 1866.18,1046.72 1866.05,1046.97 1865.94,1047.22 1865.84,1047.48 1865.75,1047.74 1865.67,1048.01 1865.6,1048.28 1865.55,1048.56 1865.51,1048.83 1865.48,1049.11 1865.47,1049.39 1865.47,1049.67 1865.48,1049.95 1865.51,1050.22 1865.55,1050.5 1865.6,1050.77 1865.67,1051.05 1865.75,1051.31 1865.84,1051.58 1865.94,1051.84 1866.05,1052.09 1866.18,1052.34 1866.32,1052.58 1866.47,1052.82 1866.63,1053.04 1866.8,1053.26 1866.98,1053.48 1867.18,1053.68 1867.38,1053.87 1867.59,1054.06 1867.8,1054.23 1868.03,1054.39 1868.26,1054.55 1868.5,1054.69 1868.75,1054.82 1869,1054.94 1869.26,1055.04 1869.52,1055.14 1869.79,1055.22 1870.06,1055.29 1870.33,1055.34 1870.61,1055.38 1870.89,1055.41 1871.17,1055.43 1871.45,1055.43 1871.72,1055.42 1872,1055.4 1872.28,1055.36 1872.55,1055.31 1872.83,1055.25 1873.09,1055.18 1873.36,1055.09 1873.62,1054.99 1873.87,1054.88 1874.12,1054.75 1874.37,1054.62 1874.61,1054.47 1874.84,1054.31 1875.06,1054.14 1875.27,1053.97 1875.48,1053.78 1875.67,1053.58 1875.86,1053.37 1876.04,1053.16 1876.2,1052.93 1876.36,1052.7 1876.5,1052.46 1876.63,1052.22 1876.76,1051.96 1876.86,1051.71 1876.96,1051.45 1877.05,1051.18 1877.12,1050.91 1877.18,1050.64 1877.22,1050.36 1877.25,1050.09 1877.27,1049.81 1877.28,1049.53 " />
</g>

<g fill="#000000" fill-opacity="1" stroke="#000000" stroke-opacity="1" stroke-width="2" stroke-linecap="round" stroke-linejoin="bevel" transform="matrix(1,0,0,1,0,0)"
font-family="Arial" font-size="12" font-weight="400" font-style="normal" 
>
<polyline fill="none" vector-effect="none" points="1857.88,1049.53 1884.88,1049.53 " />
<polyline fill="none" vector-effect="none" points="1871.38,1063.03 1871.38,1036.03 " />
<polyline fill="none" vector-effect="none" points="1844.38,1049.53 1838.47,1049.53 " />
<polyline fill="none" vector-effect="none" points="1898.38,1049.53 1904.28,1049.53 " />
<polyline fill="none" vector-effect="none" points="1871.38,1022.53 1871.38,1016.62 " />
<polyline fill="none" vector-effect="none" points="1871.38,1076.53 1871.38,1082.43 " />
</g>

<g fill="#000000" fill-opacity="1" stroke="#000000" stroke-opacity="1" stroke-width="5" stroke-linecap="round" stroke-linejoin="bevel" transform="matrix(1,0,0,1,0,0)"
font-family="Arial" font-size="12" font-weight="400" font-style="normal" 
>
<polyline fill="none" vector-effect="none" points="1794.6,1049.53 1794.61,1049.25 1794.63,1048.97 1794.66,1048.69 1794.71,1048.42 1794.77,1048.15 1794.84,1047.88 1794.92,1047.61 1795.02,1047.35 1795.13,1047.09 1795.25,1046.84 1795.38,1046.6 1795.53,1046.36 1795.68,1046.12 1795.85,1045.9 1796.03,1045.68 1796.21,1045.48 1796.41,1045.28 1796.61,1045.09 1796.83,1044.91 1797.05,1044.74 1797.28,1044.58 1797.52,1044.44 1797.76,1044.3 1798.01,1044.18 1798.27,1044.07 1798.53,1043.97 1798.79,1043.88 1799.06,1043.8 1799.33,1043.74 1799.61,1043.69 1799.88,1043.66 1800.16,1043.63 1800.44,1043.62 1800.72,1043.63 1801,1043.64 1801.27,1043.67 1801.55,1043.71 1801.82,1043.77 1802.09,1043.84 1802.36,1043.92 1802.62,1044.01 1802.88,1044.12 1803.13,1044.24 1803.38,1044.37 1803.62,1044.51 1803.86,1044.66 1804.08,1044.83 1804.3,1045 1804.51,1045.18 1804.71,1045.38 1804.9,1045.58 1805.08,1045.79 1805.25,1046.01 1805.41,1046.24 1805.56,1046.48 1805.7,1046.72 1805.83,1046.97 1805.95,1047.22 1806.05,1047.48 1806.14,1047.74 1806.22,1048.01 1806.28,1048.28 1806.33,1048.56 1806.37,1048.83 1806.4,1049.11 1806.41,1049.39 1806.41,1049.67 1806.4,1049.95 1806.37,1050.22 1806.33,1050.5 1806.28,1050.77 1806.22,1051.05 1806.14,1051.31 1806.05,1051.58 1805.95,1051.84 1805.83,1052.09 1805.7,1052.34 1805.56,1052.58 1805.41,1052.82 1805.25,1053.04 1805.08,1053.26 1804.9,1053.48 1804.71,1053.68 1804.51,1053.87 1804.3,1054.06 1804.08,1054.23 1803.86,1054.39 1803.62,1054.55 1803.38,1054.69 1803.13,1054.82 1802.88,1054.94 1802.62,1055.04 1802.36,1055.14 1802.09,1055.22 1801.82,1055.29 1801.55,1055.34 1801.27,1055.38 1801,1055.41 1800.72,1055.43 1800.44,1055.43 1800.16,1055.42 1799.88,1055.4 1799.61,1055.36 1799.33,1055.31 1799.06,1055.25 1798.79,1055.18 1798.53,1055.09 1798.27,1054.99 1798.01,1054.88 1797.76,1054.75 1797.52,1054.62 1797.28,1054.47 1797.05,1054.31 1796.83,1054.14 1796.61,1053.97 1796.41,1053.78 1796.21,1053.58 1796.03,1053.37 1795.85,1053.16 1795.68,1052.93 1795.53,1052.7 1795.38,1052.46 1795.25,1052.22 1795.13,1051.96 1795.02,1051.71 1794.92,1051.45 1794.84,1051.18 1794.77,1050.91 1794.71,1050.64 1794.66,1050.36 1794.63,1050.09 1794.61,1049.81 1794.6,1049.53 " />
</g>

<g fill="#000000" fill-opacity="1" stroke="#000000" stroke-opacity="1" stroke-width="2" stroke-linecap="round" stroke-linejoin="bevel" transform="matrix(1,0,0,1,0,0)"
font-family="Arial" font-size="12" font-weight="400" font-style="normal" 
>
<polyline fill="none" vector-effect="none" points="1787.01,1049.53 1814.01,1049.53 " />
<polyline fill="none" vector-effect="none" points="1800.51,1063.03 1800.51,1036.03 " />
<polyline fill="none" vector-effect="none" points="1773.51,1049.53 1767.6,1049.53 " />
<polyline fill="none" vector-effect="none" points="1827.51,1049.53 1833.41,1049.53 " />
<polyline fill="none" vector-effect="none" points="1800.51,1022.53 1800.51,1016.62 " />
<polyline fill="none" vector-effect="none" points="1800.51,1076.53 1800.51,1082.43 " />
</g>

<g fill="#000000" fill-opacity="1" stroke="#000000" stroke-opacity="1" stroke-width="5" stroke-linecap="round" stroke-linejoin="bevel" transform="matrix(1,0,0,1,0,0)"
font-family="Arial" font-size="12" font-weight="400" font-style="normal" 
>
<polyline fill="none" vector-effect="none" points="1694.21,1368.43 1694.2,1368.08 1694.18,1367.74 1694.15,1367.4 1694.1,1367.06 1694.04,1366.72 1693.97,1366.38 1693.89,1366.05 1693.79,1365.72 1693.68,1365.4 1693.55,1365.08 1693.42,1364.76 1693.27,1364.45 1693.11,1364.15 1692.94,1363.85 1692.75,1363.56 1692.56,1363.27 1692.35,1363 1692.14,1362.73 1691.91,1362.47 1691.68,1362.22 1691.43,1361.98 1691.18,1361.75 1690.91,1361.53 1690.64,1361.32 1690.36,1361.12 1690.08,1360.93 1689.78,1360.75 1689.48,1360.59 1689.17,1360.43 1688.86,1360.29 1688.54,1360.16 1688.22,1360.04 1687.89,1359.94 1687.56,1359.85 1687.23,1359.77 1686.89,1359.7 1686.55,1359.65 1686.21,1359.61 1685.87,1359.58 1685.52,1359.57 1685.18,1359.57 1684.84,1359.58 1684.49,1359.61 1684.15,1359.65 1683.81,1359.7 1683.48,1359.77 1683.14,1359.85 1682.81,1359.94 1682.48,1360.04 1682.16,1360.16 1681.84,1360.29 1681.53,1360.43 1681.22,1360.59 1680.92,1360.75 1680.63,1360.93 1680.34,1361.12 1680.06,1361.32 1679.79,1361.53 1679.53,1361.75 1679.27,1361.98 1679.03,1362.22 1678.79,1362.47 1678.57,1362.73 1678.35,1363 1678.15,1363.27 1677.95,1363.56 1677.77,1363.85 1677.6,1364.15 1677.44,1364.45 1677.29,1364.76 1677.15,1365.08 1677.03,1365.4 1676.92,1365.72 1676.82,1366.05 1676.73,1366.38 1676.66,1366.72 1676.6,1367.06 1676.55,1367.4 1676.52,1367.74 1676.5,1368.08 1676.49,1368.43 1676.5,1368.77 1676.52,1369.11 1676.55,1369.45 1676.6,1369.79 1676.66,1370.13 1676.73,1370.47 1676.82,1370.8 1676.92,1371.13 1677.03,1371.46 1677.15,1371.78 1677.29,1372.09 1677.44,1372.4 1677.6,1372.71 1677.77,1373 1677.95,1373.29 1678.15,1373.58 1678.35,1373.85 1678.57,1374.12 1678.79,1374.38 1679.03,1374.63 1679.27,1374.87 1679.53,1375.1 1679.79,1375.32 1680.06,1375.53 1680.34,1375.73 1680.63,1375.92 1680.92,1376.1 1681.22,1376.26 1681.53,1376.42 1681.84,1376.56 1682.16,1376.69 1682.48,1376.81 1682.81,1376.91 1683.14,1377 1683.48,1377.08 1683.81,1377.15 1684.15,1377.2 1684.49,1377.24 1684.84,1377.27 1685.18,1377.28 1685.52,1377.28 1685.87,1377.27 1686.21,1377.24 1686.55,1377.2 1686.89,1377.15 1687.23,1377.08 1687.56,1377 1687.89,1376.91 1688.22,1376.81 1688.54,1376.69 1688.86,1376.56 1689.17,1376.42 1689.48,1376.26 1689.78,1376.1 1690.08,1375.92 1690.36,1375.73 1690.64,1375.53 1690.91,1375.32 1691.18,1375.1 1691.43,1374.87 1691.68,1374.63 1691.91,1374.38 1692.14,1374.12 1692.35,1373.85 1692.56,1373.58 1692.75,1373.29 1692.94,1373 1693.11,1372.71 1693.27,1372.4 1693.42,1372.09 1693.55,1371.78 1693.68,1371.46 1693.79,1371.13 1693.89,1370.8 1693.97,1370.47 1694.04,1370.13 1694.1,1369.79 1694.15,1369.45 1694.18,1369.11 1694.2,1368.77 1694.21,1368.43 " />
</g>

<g fill="#000000" fill-opacity="1" stroke="#000000" stroke-opacity="1" stroke-width="2" stroke-linecap="round" stroke-linejoin="bevel" transform="matrix(1,0,0,1,0,0)"
font-family="Arial" font-size="12" font-weight="400" font-style="normal" 
>
<polyline fill="none" vector-effect="none" points="1671.85,1368.43 1698.85,1368.43 " />
<polyline fill="none" vector-effect="none" points="1685.35,1381.93 1685.35,1354.93 " />
<polyline fill="none" vector-effect="none" points="1658.35,1368.43 1649.49,1368.43 " />
<polyline fill="none" vector-effect="none" points="1712.35,1368.43 1721.21,1368.43 " />
<polyline fill="none" vector-effect="none" points="1685.35,1341.43 1685.35,1332.57 " />
<polyline fill="none" vector-effect="none" points="1685.35,1395.43 1685.35,1404.28 " />
</g>

<g fill="#000000" fill-opacity="1" stroke="#000000" stroke-opacity="1" stroke-width="5" stroke-linecap="round" stroke-linejoin="bevel" transform="matrix(1,0,0,1,0,0)"
font-family="Arial" font-size="12" font-weight="400" font-style="normal" 
>
<polyline fill="none" vector-effect="none" points="1770.98,1049.53 1770.98,1049.25 1770.96,1048.97 1770.92,1048.69 1770.88,1048.42 1770.82,1048.15 1770.75,1047.88 1770.66,1047.61 1770.56,1047.35 1770.46,1047.09 1770.33,1046.84 1770.2,1046.6 1770.06,1046.36 1769.9,1046.12 1769.74,1045.9 1769.56,1045.68 1769.37,1045.48 1769.18,1045.28 1768.97,1045.09 1768.76,1044.91 1768.54,1044.74 1768.31,1044.58 1768.07,1044.44 1767.83,1044.3 1767.58,1044.18 1767.32,1044.07 1767.06,1043.97 1766.79,1043.88 1766.53,1043.8 1766.25,1043.74 1765.98,1043.69 1765.7,1043.66 1765.42,1043.63 1765.15,1043.62 1764.87,1043.63 1764.59,1043.64 1764.31,1043.67 1764.04,1043.71 1763.76,1043.77 1763.49,1043.84 1763.22,1043.92 1762.96,1044.01 1762.7,1044.12 1762.45,1044.24 1762.2,1044.37 1761.96,1044.51 1761.73,1044.66 1761.5,1044.83 1761.29,1045 1761.08,1045.18 1760.88,1045.38 1760.68,1045.58 1760.5,1045.79 1760.33,1046.01 1760.17,1046.24 1760.02,1046.48 1759.88,1046.72 1759.76,1046.97 1759.64,1047.22 1759.54,1047.48 1759.45,1047.74 1759.37,1048.01 1759.3,1048.28 1759.25,1048.56 1759.21,1048.83 1759.19,1049.11 1759.17,1049.39 1759.17,1049.67 1759.19,1049.95 1759.21,1050.22 1759.25,1050.5 1759.3,1050.77 1759.37,1051.05 1759.45,1051.31 1759.54,1051.58 1759.64,1051.84 1759.76,1052.09 1759.88,1052.34 1760.02,1052.58 1760.17,1052.82 1760.33,1053.04 1760.5,1053.26 1760.68,1053.48 1760.88,1053.68 1761.08,1053.87 1761.29,1054.06 1761.5,1054.23 1761.73,1054.39 1761.96,1054.55 1762.2,1054.69 1762.45,1054.82 1762.7,1054.94 1762.96,1055.04 1763.22,1055.14 1763.49,1055.22 1763.76,1055.29 1764.04,1055.34 1764.31,1055.38 1764.59,1055.41 1764.87,1055.43 1765.15,1055.43 1765.42,1055.42 1765.7,1055.4 1765.98,1055.36 1766.25,1055.31 1766.53,1055.25 1766.79,1055.18 1767.06,1055.09 1767.32,1054.99 1767.58,1054.88 1767.83,1054.75 1768.07,1054.62 1768.31,1054.47 1768.54,1054.31 1768.76,1054.14 1768.97,1053.97 1769.18,1053.78 1769.37,1053.58 1769.56,1053.37 1769.74,1053.16 1769.9,1052.93 1770.06,1052.7 1770.2,1052.46 1770.33,1052.22 1770.46,1051.96 1770.56,1051.71 1770.66,1051.45 1770.75,1051.18 1770.82,1050.91 1770.88,1050.64 1770.92,1050.36 1770.96,1050.09 1770.98,1049.81 1770.98,1049.53 " />
</g>

<g fill="#000000" fill-opacity="1" stroke="#000000" stroke-opacity="1" stroke-width="2" stroke-linecap="round" stroke-linejoin="bevel" transform="matrix(1,0,0,1,0,0)"
font-family="Arial" font-size="12" font-weight="400" font-style="normal" 
>
<polyline fill="none" vector-effect="none" points="1751.58,1049.53 1778.58,1049.53 " />
<polyline fill="none" vector-effect="none" points="1765.08,1063.03 1765.08,1036.03 " />
<polyline fill="none" vector-effect="none" points="1738.08,1049.53 1732.17,1049.53 " />
<polyline fill="none" vector-effect="none" points="1792.08,1049.53 1797.98,1049.53 " />
<polyline fill="none" vector-effect="none" points="1765.08,1022.53 1765.08,1016.62 " />
<polyline fill="none" vector-effect="none" points="1765.08,1076.53 1765.08,1082.43 " />
</g>

<g fill="#000000" fill-opacity="1" stroke="#000000" stroke-opacity="1" stroke-width="5" stroke-linecap="round" stroke-linejoin="bevel" transform="matrix(1,0,0,1,0,0)"
font-family="Arial" font-size="12" font-weight="400" font-style="normal" 
>
<polyline fill="none" vector-effect="none" points="1865.47,1344.8 1865.46,1344.52 1865.44,1344.25 1865.41,1343.97 1865.36,1343.69 1865.31,1343.42 1865.23,1343.15 1865.15,1342.89 1865.05,1342.62 1864.94,1342.37 1864.82,1342.12 1864.69,1341.87 1864.55,1341.63 1864.39,1341.4 1864.22,1341.18 1864.05,1340.96 1863.86,1340.75 1863.67,1340.55 1863.46,1340.37 1863.25,1340.19 1863.02,1340.02 1862.79,1339.86 1862.56,1339.71 1862.31,1339.58 1862.06,1339.45 1861.81,1339.34 1861.55,1339.24 1861.28,1339.15 1861.01,1339.08 1860.74,1339.02 1860.47,1338.97 1860.19,1338.93 1859.91,1338.91 1859.63,1338.9 1859.36,1338.9 1859.08,1338.92 1858.8,1338.95 1858.52,1338.99 1858.25,1339.05 1857.98,1339.11 1857.71,1339.2 1857.45,1339.29 1857.19,1339.4 1856.94,1339.51 1856.69,1339.64 1856.45,1339.78 1856.22,1339.94 1855.99,1340.1 1855.77,1340.27 1855.56,1340.46 1855.36,1340.65 1855.17,1340.86 1854.99,1341.07 1854.82,1341.29 1854.66,1341.52 1854.51,1341.75 1854.37,1341.99 1854.24,1342.24 1854.13,1342.5 1854.03,1342.75 1853.94,1343.02 1853.86,1343.29 1853.79,1343.56 1853.74,1343.83 1853.7,1344.11 1853.67,1344.39 1853.66,1344.66 1853.66,1344.94 1853.67,1345.22 1853.7,1345.5 1853.74,1345.78 1853.79,1346.05 1853.86,1346.32 1853.94,1346.59 1854.03,1346.85 1854.13,1347.11 1854.24,1347.37 1854.37,1347.61 1854.51,1347.86 1854.66,1348.09 1854.82,1348.32 1854.99,1348.54 1855.17,1348.75 1855.36,1348.95 1855.56,1349.15 1855.77,1349.33 1855.99,1349.51 1856.22,1349.67 1856.45,1349.82 1856.69,1349.96 1856.94,1350.09 1857.19,1350.21 1857.45,1350.32 1857.71,1350.41 1857.98,1350.49 1858.25,1350.56 1858.52,1350.62 1858.8,1350.66 1859.08,1350.69 1859.36,1350.71 1859.63,1350.71 1859.91,1350.7 1860.19,1350.68 1860.47,1350.64 1860.74,1350.59 1861.01,1350.53 1861.28,1350.45 1861.55,1350.37 1861.81,1350.27 1862.06,1350.15 1862.31,1350.03 1862.56,1349.89 1862.79,1349.75 1863.02,1349.59 1863.25,1349.42 1863.46,1349.24 1863.67,1349.05 1863.86,1348.85 1864.05,1348.65 1864.22,1348.43 1864.39,1348.21 1864.55,1347.97 1864.69,1347.74 1864.82,1347.49 1864.94,1347.24 1865.05,1346.98 1865.15,1346.72 1865.23,1346.46 1865.31,1346.19 1865.36,1345.91 1865.41,1345.64 1865.44,1345.36 1865.46,1345.08 1865.47,1344.8 " />
</g>

<g fill="#000000" fill-opacity="1" stroke="#000000" stroke-opacity="1" stroke-width="2" stroke-linecap="round" stroke-linejoin="bevel" transform="matrix(1,0,0,1,0,0)"
font-family="Arial" font-size="12" font-weight="400" font-style="normal" 
>
<polyline fill="none" vector-effect="none" points="1846.06,1344.8 1873.06,1344.8 " />
<polyline fill="none" vector-effect="none" points="1859.56,1358.3 1859.56,1331.3 " />
<polyline fill="none" vector-effect="none" points="1832.56,1344.8 1826.66,1344.8 " />
<polyline fill="none" vector-effect="none" points="1886.56,1344.8 1892.47,1344.8 " />
<polyline fill="none" vector-effect="none" points="1859.56,1317.8 1859.56,1311.9 " />
<polyline fill="none" vector-effect="none" points="1859.56,1371.8 1859.56,1377.71 " />
</g>

<g fill="#000000" fill-opacity="1" stroke="#000000" stroke-opacity="1" stroke-width="5" stroke-linecap="round" stroke-linejoin="bevel" transform="matrix(1,0,0,1,0,0)"
font-family="Arial" font-size="12" font-weight="400" font-style="normal" 
>
<polyline fill="none" vector-effect="none" points="1676.49,1025.91 1676.5,1025.56 1676.52,1025.22 1676.55,1024.88 1676.6,1024.54 1676.66,1024.2 1676.73,1023.86 1676.82,1023.53 1676.92,1023.2 1677.03,1022.88 1677.15,1022.56 1677.29,1022.24 1677.44,1021.93 1677.6,1021.63 1677.77,1021.33 1677.95,1021.04 1678.15,1020.75 1678.35,1020.48 1678.57,1020.21 1678.79,1019.95 1679.03,1019.7 1679.27,1019.46 1679.53,1019.23 1679.79,1019.01 1680.06,1018.8 1680.34,1018.6 1680.63,1018.41 1680.92,1018.23 1681.22,1018.07 1681.53,1017.91 1681.84,1017.77 1682.16,1017.64 1682.48,1017.52 1682.81,1017.42 1683.14,1017.33 1683.48,1017.25 1683.81,1017.18 1684.15,1017.13 1684.49,1017.09 1684.84,1017.06 1685.18,1017.05 1685.52,1017.05 1685.87,1017.06 1686.21,1017.09 1686.55,1017.13 1686.89,1017.18 1687.23,1017.25 1687.56,1017.33 1687.89,1017.42 1688.22,1017.52 1688.54,1017.64 1688.86,1017.77 1689.17,1017.91 1689.48,1018.07 1689.78,1018.23 1690.08,1018.41 1690.36,1018.6 1690.64,1018.8 1690.91,1019.01 1691.18,1019.23 1691.43,1019.46 1691.68,1019.7 1691.91,1019.95 1692.14,1020.21 1692.35,1020.48 1692.56,1020.75 1692.75,1021.04 1692.94,1021.33 1693.11,1021.63 1693.27,1021.93 1693.42,1022.24 1693.55,1022.56 1693.68,1022.88 1693.79,1023.2 1693.89,1023.53 1693.97,1023.86 1694.04,1024.2 1694.1,1024.54 1694.15,1024.88 1694.18,1025.22 1694.2,1025.56 1694.21,1025.91 1694.2,1026.25 1694.18,1026.59 1694.15,1026.93 1694.1,1027.27 1694.04,1027.61 1693.97,1027.95 1693.89,1028.28 1693.79,1028.61 1693.68,1028.94 1693.55,1029.26 1693.42,1029.57 1693.27,1029.88 1693.11,1030.19 1692.94,1030.48 1692.75,1030.77 1692.56,1031.06 1692.35,1031.33 1692.14,1031.6 1691.91,1031.86 1691.68,1032.11 1691.43,1032.35 1691.18,1032.58 1690.91,1032.8 1690.64,1033.01 1690.36,1033.21 1690.08,1033.4 1689.78,1033.58 1689.48,1033.74 1689.17,1033.9 1688.86,1034.04 1688.54,1034.17 1688.22,1034.29 1687.89,1034.39 1687.56,1034.48 1687.23,1034.56 1686.89,1034.63 1686.55,1034.68 1686.21,1034.72 1685.87,1034.75 1685.52,1034.76 1685.18,1034.76 1684.84,1034.75 1684.49,1034.72 1684.15,1034.68 1683.81,1034.63 1683.48,1034.56 1683.14,1034.48 1682.81,1034.39 1682.48,1034.29 1682.16,1034.17 1681.84,1034.04 1681.53,1033.9 1681.22,1033.74 1680.92,1033.58 1680.63,1033.4 1680.34,1033.21 1680.06,1033.01 1679.79,1032.8 1679.53,1032.58 1679.27,1032.35 1679.03,1032.11 1678.79,1031.86 1678.57,1031.6 1678.35,1031.33 1678.15,1031.06 1677.95,1030.77 1677.77,1030.48 1677.6,1030.19 1677.44,1029.88 1677.29,1029.57 1677.15,1029.26 1677.03,1028.94 1676.92,1028.61 1676.82,1028.28 1676.73,1027.95 1676.66,1027.61 1676.6,1027.27 1676.55,1026.93 1676.52,1026.59 1676.5,1026.25 1676.49,1025.91 " />
</g>

<g fill="#000000" fill-opacity="1" stroke="#000000" stroke-opacity="1" stroke-width="2" stroke-linecap="round" stroke-linejoin="bevel" transform="matrix(1,0,0,1,0,0)"
font-family="Arial" font-size="12" font-weight="400" font-style="normal" 
>
<polyline fill="none" vector-effect="none" points="1671.85,1025.91 1698.85,1025.91 " />
<polyline fill="none" vector-effect="none" points="1685.35,1039.41 1685.35,1012.41 " />
<polyline fill="none" vector-effect="none" points="1658.35,1025.91 1649.49,1025.91 " />
<polyline fill="none" vector-effect="none" points="1712.35,1025.91 1721.21,1025.91 " />
<polyline fill="none" vector-effect="none" points="1685.35,998.906 1685.35,990.048 " />
<polyline fill="none" vector-effect="none" points="1685.35,1052.91 1685.35,1061.76 " />
</g>

<g fill="#000000" fill-opacity="1" stroke="#000000" stroke-opacity="1" stroke-width="5" stroke-linecap="round" stroke-linejoin="bevel" transform="matrix(1,0,0,1,0,0)"
font-family="Arial" font-size="12" font-weight="400" font-style="normal" 
>
<polyline fill="none" vector-effect="none" points="1655.82,1073.15 1655.82,1072.81 1655.8,1072.46 1655.76,1072.12 1655.72,1071.78 1655.66,1071.44 1655.59,1071.11 1655.5,1070.77 1655.4,1070.45 1655.29,1070.12 1655.17,1069.8 1655.03,1069.48 1654.88,1069.17 1654.72,1068.87 1654.55,1068.57 1654.37,1068.28 1654.17,1068 1653.97,1067.72 1653.75,1067.46 1653.53,1067.2 1653.29,1066.95 1653.04,1066.71 1652.79,1066.48 1652.53,1066.25 1652.26,1066.04 1651.98,1065.84 1651.69,1065.66 1651.4,1065.48 1651.09,1065.31 1650.79,1065.16 1650.47,1065.02 1650.16,1064.89 1649.83,1064.77 1649.51,1064.66 1649.18,1064.57 1648.84,1064.49 1648.5,1064.43 1648.16,1064.37 1647.82,1064.33 1647.48,1064.31 1647.14,1064.29 1646.79,1064.29 1646.45,1064.31 1646.11,1064.33 1645.77,1064.37 1645.43,1064.43 1645.09,1064.49 1644.76,1064.57 1644.43,1064.66 1644.1,1064.77 1643.78,1064.89 1643.46,1065.02 1643.14,1065.16 1642.84,1065.31 1642.54,1065.48 1642.24,1065.66 1641.96,1065.84 1641.68,1066.04 1641.4,1066.25 1641.14,1066.48 1640.89,1066.71 1640.64,1066.95 1640.41,1067.2 1640.18,1067.46 1639.96,1067.72 1639.76,1068 1639.56,1068.28 1639.38,1068.57 1639.21,1068.87 1639.05,1069.17 1638.9,1069.48 1638.77,1069.8 1638.64,1070.12 1638.53,1070.45 1638.43,1070.77 1638.35,1071.11 1638.27,1071.44 1638.21,1071.78 1638.17,1072.12 1638.13,1072.46 1638.11,1072.81 1638.11,1073.15 1638.11,1073.49 1638.13,1073.84 1638.17,1074.18 1638.21,1074.52 1638.27,1074.86 1638.35,1075.19 1638.43,1075.53 1638.53,1075.85 1638.64,1076.18 1638.77,1076.5 1638.9,1076.82 1639.05,1077.13 1639.21,1077.43 1639.38,1077.73 1639.56,1078.02 1639.76,1078.3 1639.96,1078.58 1640.18,1078.84 1640.41,1079.1 1640.64,1079.35 1640.89,1079.59 1641.14,1079.82 1641.4,1080.04 1641.68,1080.26 1641.96,1080.46 1642.24,1080.64 1642.54,1080.82 1642.84,1080.99 1643.14,1081.14 1643.46,1081.28 1643.78,1081.41 1644.1,1081.53 1644.43,1081.64 1644.76,1081.73 1645.09,1081.81 1645.43,1081.87 1645.77,1081.93 1646.11,1081.97 1646.45,1081.99 1646.79,1082.01 1647.14,1082.01 1647.48,1081.99 1647.82,1081.97 1648.16,1081.93 1648.5,1081.87 1648.84,1081.81 1649.18,1081.73 1649.51,1081.64 1649.83,1081.53 1650.16,1081.41 1650.47,1081.28 1650.79,1081.14 1651.09,1080.99 1651.4,1080.82 1651.69,1080.64 1651.98,1080.46 1652.26,1080.26 1652.53,1080.04 1652.79,1079.82 1653.04,1079.59 1653.29,1079.35 1653.53,1079.1 1653.75,1078.84 1653.97,1078.58 1654.17,1078.3 1654.37,1078.02 1654.55,1077.73 1654.72,1077.43 1654.88,1077.13 1655.03,1076.82 1655.17,1076.5 1655.29,1076.18 1655.4,1075.85 1655.5,1075.53 1655.59,1075.19 1655.66,1074.86 1655.72,1074.52 1655.76,1074.18 1655.8,1073.84 1655.82,1073.49 1655.82,1073.15 " />
</g>

<g fill="#000000" fill-opacity="1" stroke="#000000" stroke-opacity="1" stroke-width="2" stroke-linecap="round" stroke-linejoin="bevel" transform="matrix(1,0,0,1,0,0)"
font-family="Arial" font-size="12" font-weight="400" font-style="normal" 
>
<polyline fill="none" vector-effect="none" points="1633.47,1073.15 1660.47,1073.15 " />
<polyline fill="none" vector-effect="none" points="1646.97,1086.65 1646.97,1059.65 " />
<polyline fill="none" vector-effect="none" points="1619.97,1073.15 1611.11,1073.15 " />
<polyline fill="none" vector-effect="none" points="1673.97,1073.15 1682.82,1073.15 " />
<polyline fill="none" vector-effect="none" points="1646.97,1046.15 1646.97,1037.29 " />
<polyline fill="none" vector-effect="none" points="1646.97,1100.15 1646.97,1109.01 " />
</g>

<g fill="#000000" fill-opacity="1" stroke="#000000" stroke-opacity="1" stroke-width="5" stroke-linecap="round" stroke-linejoin="bevel" transform="matrix(1,0,0,1,0,0)"
font-family="Arial" font-size="12" font-weight="400" font-style="normal" 
>
<polyline fill="none" vector-effect="none" points="1959.96,1025.91 1959.95,1025.56 1959.93,1025.22 1959.9,1024.88 1959.85,1024.54 1959.79,1024.2 1959.72,1023.86 1959.63,1023.53 1959.54,1023.2 1959.42,1022.88 1959.3,1022.56 1959.16,1022.24 1959.02,1021.93 1958.86,1021.63 1958.68,1021.33 1958.5,1021.04 1958.31,1020.75 1958.1,1020.48 1957.89,1020.21 1957.66,1019.95 1957.42,1019.7 1957.18,1019.46 1956.92,1019.23 1956.66,1019.01 1956.39,1018.8 1956.11,1018.6 1955.82,1018.41 1955.53,1018.23 1955.23,1018.07 1954.92,1017.91 1954.61,1017.77 1954.29,1017.64 1953.97,1017.52 1953.64,1017.42 1953.31,1017.33 1952.98,1017.25 1952.64,1017.18 1952.3,1017.13 1951.96,1017.09 1951.61,1017.06 1951.27,1017.05 1950.93,1017.05 1950.58,1017.06 1950.24,1017.09 1949.9,1017.13 1949.56,1017.18 1949.22,1017.25 1948.89,1017.33 1948.56,1017.42 1948.23,1017.52 1947.91,1017.64 1947.59,1017.77 1947.28,1017.91 1946.97,1018.07 1946.67,1018.23 1946.38,1018.41 1946.09,1018.6 1945.81,1018.8 1945.54,1019.01 1945.28,1019.23 1945.02,1019.46 1944.78,1019.7 1944.54,1019.95 1944.31,1020.21 1944.1,1020.48 1943.89,1020.75 1943.7,1021.04 1943.52,1021.33 1943.34,1021.63 1943.18,1021.93 1943.04,1022.24 1942.9,1022.56 1942.78,1022.88 1942.66,1023.2 1942.57,1023.53 1942.48,1023.86 1942.41,1024.2 1942.35,1024.54 1942.3,1024.88 1942.27,1025.22 1942.25,1025.56 1942.24,1025.91 1942.25,1026.25 1942.27,1026.59 1942.3,1026.93 1942.35,1027.27 1942.41,1027.61 1942.48,1027.95 1942.57,1028.28 1942.66,1028.61 1942.78,1028.94 1942.9,1029.26 1943.04,1029.57 1943.18,1029.88 1943.34,1030.19 1943.52,1030.48 1943.7,1030.77 1943.89,1031.06 1944.1,1031.33 1944.31,1031.6 1944.54,1031.86 1944.78,1032.11 1945.02,1032.35 1945.28,1032.58 1945.54,1032.8 1945.81,1033.01 1946.09,1033.21 1946.38,1033.4 1946.67,1033.58 1946.97,1033.74 1947.28,1033.9 1947.59,1034.04 1947.91,1034.17 1948.23,1034.29 1948.56,1034.39 1948.89,1034.48 1949.22,1034.56 1949.56,1034.63 1949.9,1034.68 1950.24,1034.72 1950.58,1034.75 1950.93,1034.76 1951.27,1034.76 1951.61,1034.75 1951.96,1034.72 1952.3,1034.68 1952.64,1034.63 1952.98,1034.56 1953.31,1034.48 1953.64,1034.39 1953.97,1034.29 1954.29,1034.17 1954.61,1034.04 1954.92,1033.9 1955.23,1033.74 1955.53,1033.58 1955.82,1033.4 1956.11,1033.21 1956.39,1033.01 1956.66,1032.8 1956.92,1032.58 1957.18,1032.35 1957.42,1032.11 1957.66,1031.86 1957.89,1031.6 1958.1,1031.33 1958.31,1031.06 1958.5,1030.77 1958.68,1030.48 1958.86,1030.19 1959.02,1029.88 1959.16,1029.57 1959.3,1029.26 1959.42,1028.94 1959.54,1028.61 1959.63,1028.28 1959.72,1027.95 1959.79,1027.61 1959.85,1027.27 1959.9,1026.93 1959.93,1026.59 1959.95,1026.25 1959.96,1025.91 " />
</g>

<g fill="#000000" fill-opacity="1" stroke="#000000" stroke-opacity="1" stroke-width="2" stroke-linecap="round" stroke-linejoin="bevel" transform="matrix(1,0,0,1,0,0)"
font-family="Arial" font-size="12" font-weight="400" font-style="normal" 
>
<polyline fill="none" vector-effect="none" points="1937.6,1025.91 1964.6,1025.91 " />
<polyline fill="none" vector-effect="none" points="1951.1,1039.41 1951.1,1012.41 " />
<polyline fill="none" vector-effect="none" points="1924.1,1025.91 1915.24,1025.91 " />
<polyline fill="none" vector-effect="none" points="1978.1,1025.91 1986.96,1025.91 " />
<polyline fill="none" vector-effect="none" points="1951.1,998.906 1951.1,990.048 " />
<polyline fill="none" vector-effect="none" points="1951.1,1052.91 1951.1,1061.76 " />
</g>

<g fill="#000000" fill-opacity="1" stroke="#000000" stroke-opacity="1" stroke-width="5" stroke-linecap="round" stroke-linejoin="bevel" transform="matrix(1,0,0,1,0,0)"
font-family="Arial" font-size="12" font-weight="400" font-style="normal" 
>
<polyline fill="none" vector-effect="none" points="1638.11,1321.18 1638.11,1320.84 1638.13,1320.49 1638.17,1320.15 1638.21,1319.81 1638.27,1319.47 1638.35,1319.14 1638.43,1318.81 1638.53,1318.48 1638.64,1318.15 1638.77,1317.83 1638.9,1317.52 1639.05,1317.21 1639.21,1316.9 1639.38,1316.6 1639.56,1316.31 1639.76,1316.03 1639.96,1315.75 1640.18,1315.49 1640.41,1315.23 1640.64,1314.98 1640.89,1314.74 1641.14,1314.51 1641.4,1314.29 1641.68,1314.08 1641.96,1313.88 1642.24,1313.69 1642.54,1313.51 1642.84,1313.34 1643.14,1313.19 1643.46,1313.05 1643.78,1312.92 1644.1,1312.8 1644.43,1312.7 1644.76,1312.6 1645.09,1312.52 1645.43,1312.46 1645.77,1312.4 1646.11,1312.36 1646.45,1312.34 1646.79,1312.32 1647.14,1312.32 1647.48,1312.34 1647.82,1312.36 1648.16,1312.4 1648.5,1312.46 1648.84,1312.52 1649.18,1312.6 1649.51,1312.7 1649.83,1312.8 1650.16,1312.92 1650.47,1313.05 1650.79,1313.19 1651.09,1313.34 1651.4,1313.51 1651.69,1313.69 1651.98,1313.88 1652.26,1314.08 1652.53,1314.29 1652.79,1314.51 1653.04,1314.74 1653.29,1314.98 1653.53,1315.23 1653.75,1315.49 1653.97,1315.75 1654.17,1316.03 1654.37,1316.31 1654.55,1316.6 1654.72,1316.9 1654.88,1317.21 1655.03,1317.52 1655.17,1317.83 1655.29,1318.15 1655.4,1318.48 1655.5,1318.81 1655.59,1319.14 1655.66,1319.47 1655.72,1319.81 1655.76,1320.15 1655.8,1320.49 1655.82,1320.84 1655.82,1321.18 1655.82,1321.52 1655.8,1321.87 1655.76,1322.21 1655.72,1322.55 1655.66,1322.89 1655.59,1323.22 1655.5,1323.56 1655.4,1323.89 1655.29,1324.21 1655.17,1324.53 1655.03,1324.85 1654.88,1325.16 1654.72,1325.46 1654.55,1325.76 1654.37,1326.05 1654.17,1326.33 1653.97,1326.61 1653.75,1326.88 1653.53,1327.13 1653.29,1327.38 1653.04,1327.62 1652.79,1327.86 1652.53,1328.08 1652.26,1328.29 1651.98,1328.49 1651.69,1328.68 1651.4,1328.85 1651.09,1329.02 1650.79,1329.17 1650.47,1329.32 1650.16,1329.45 1649.83,1329.56 1649.51,1329.67 1649.18,1329.76 1648.84,1329.84 1648.5,1329.91 1648.16,1329.96 1647.82,1330 1647.48,1330.02 1647.14,1330.04 1646.79,1330.04 1646.45,1330.02 1646.11,1330 1645.77,1329.96 1645.43,1329.91 1645.09,1329.84 1644.76,1329.76 1644.43,1329.67 1644.1,1329.56 1643.78,1329.45 1643.46,1329.32 1643.14,1329.17 1642.84,1329.02 1642.54,1328.85 1642.24,1328.68 1641.96,1328.49 1641.68,1328.29 1641.4,1328.08 1641.14,1327.86 1640.89,1327.62 1640.64,1327.38 1640.41,1327.13 1640.18,1326.88 1639.96,1326.61 1639.76,1326.33 1639.56,1326.05 1639.38,1325.76 1639.21,1325.46 1639.05,1325.16 1638.9,1324.85 1638.77,1324.53 1638.64,1324.21 1638.53,1323.89 1638.43,1323.56 1638.35,1323.22 1638.27,1322.89 1638.21,1322.55 1638.17,1322.21 1638.13,1321.87 1638.11,1321.52 1638.11,1321.18 " />
</g>

<g fill="#000000" fill-opacity="1" stroke="#000000" stroke-opacity="1" stroke-width="2" stroke-linecap="round" stroke-linejoin="bevel" transform="matrix(1,0,0,1,0,0)"
font-family="Arial" font-size="12" font-weight="400" font-style="normal" 
>
<polyline fill="none" vector-effect="none" points="1633.47,1321.18 1660.47,1321.18 " />
<polyline fill="none" vector-effect="none" points="1646.97,1334.68 1646.97,1307.68 " />
<polyline fill="none" vector-effect="none" points="1619.97,1321.18 1611.11,1321.18 " />
<polyline fill="none" vector-effect="none" points="1673.97,1321.18 1682.82,1321.18 " />
<polyline fill="none" vector-effect="none" points="1646.97,1294.18 1646.97,1285.32 " />
<polyline fill="none" vector-effect="none" points="1646.97,1348.18 1646.97,1357.04 " />
</g>

<g fill="#000000" fill-opacity="1" stroke="#000000" stroke-opacity="1" stroke-width="5" stroke-linecap="round" stroke-linejoin="bevel" transform="matrix(1,0,0,1,0,0)"
font-family="Arial" font-size="12" font-weight="400" font-style="normal" 
>
<polyline fill="none" vector-effect="none" points="1806.41,1344.8 1806.41,1344.52 1806.39,1344.25 1806.36,1343.97 1806.31,1343.69 1806.25,1343.42 1806.18,1343.15 1806.09,1342.89 1806,1342.62 1805.89,1342.37 1805.77,1342.12 1805.64,1341.87 1805.49,1341.63 1805.34,1341.4 1805.17,1341.18 1804.99,1340.96 1804.81,1340.75 1804.61,1340.55 1804.41,1340.37 1804.19,1340.19 1803.97,1340.02 1803.74,1339.86 1803.5,1339.71 1803.26,1339.58 1803.01,1339.45 1802.75,1339.34 1802.49,1339.24 1802.23,1339.15 1801.96,1339.08 1801.69,1339.02 1801.41,1338.97 1801.14,1338.93 1800.86,1338.91 1800.58,1338.9 1800.3,1338.9 1800.02,1338.92 1799.74,1338.95 1799.47,1338.99 1799.2,1339.05 1798.92,1339.11 1798.66,1339.2 1798.4,1339.29 1798.14,1339.4 1797.88,1339.51 1797.64,1339.64 1797.4,1339.78 1797.16,1339.94 1796.94,1340.1 1796.72,1340.27 1796.51,1340.46 1796.31,1340.65 1796.12,1340.86 1795.94,1341.07 1795.76,1341.29 1795.6,1341.52 1795.45,1341.75 1795.32,1341.99 1795.19,1342.24 1795.07,1342.5 1794.97,1342.75 1794.88,1343.02 1794.8,1343.29 1794.74,1343.56 1794.68,1343.83 1794.64,1344.11 1794.62,1344.39 1794.61,1344.66 1794.61,1344.94 1794.62,1345.22 1794.64,1345.5 1794.68,1345.78 1794.74,1346.05 1794.8,1346.32 1794.88,1346.59 1794.97,1346.85 1795.07,1347.11 1795.19,1347.37 1795.32,1347.61 1795.45,1347.86 1795.6,1348.09 1795.76,1348.32 1795.94,1348.54 1796.12,1348.75 1796.31,1348.95 1796.51,1349.15 1796.72,1349.33 1796.94,1349.51 1797.16,1349.67 1797.4,1349.82 1797.64,1349.96 1797.88,1350.09 1798.14,1350.21 1798.4,1350.32 1798.66,1350.41 1798.92,1350.49 1799.2,1350.56 1799.47,1350.62 1799.74,1350.66 1800.02,1350.69 1800.3,1350.71 1800.58,1350.71 1800.86,1350.7 1801.14,1350.68 1801.41,1350.64 1801.69,1350.59 1801.96,1350.53 1802.23,1350.45 1802.49,1350.37 1802.75,1350.27 1803.01,1350.15 1803.26,1350.03 1803.5,1349.89 1803.74,1349.75 1803.97,1349.59 1804.19,1349.42 1804.41,1349.24 1804.61,1349.05 1804.81,1348.85 1804.99,1348.65 1805.17,1348.43 1805.34,1348.21 1805.49,1347.97 1805.64,1347.74 1805.77,1347.49 1805.89,1347.24 1806,1346.98 1806.09,1346.72 1806.18,1346.46 1806.25,1346.19 1806.31,1345.91 1806.36,1345.64 1806.39,1345.36 1806.41,1345.08 1806.41,1344.8 " />
</g>

<g fill="#000000" fill-opacity="1" stroke="#000000" stroke-opacity="1" stroke-width="2" stroke-linecap="round" stroke-linejoin="bevel" transform="matrix(1,0,0,1,0,0)"
font-family="Arial" font-size="12" font-weight="400" font-style="normal" 
>
<polyline fill="none" vector-effect="none" points="1787.01,1344.8 1814.01,1344.8 " />
<polyline fill="none" vector-effect="none" points="1800.51,1358.3 1800.51,1331.3 " />
<polyline fill="none" vector-effect="none" points="1773.51,1344.8 1767.6,1344.8 " />
<polyline fill="none" vector-effect="none" points="1827.51,1344.8 1833.41,1344.8 " />
<polyline fill="none" vector-effect="none" points="1800.51,1317.8 1800.51,1311.9 " />
<polyline fill="none" vector-effect="none" points="1800.51,1371.8 1800.51,1377.71 " />
</g>

<g fill="#000000" fill-opacity="1" stroke="#000000" stroke-opacity="1" stroke-width="5" stroke-linecap="round" stroke-linejoin="bevel" transform="matrix(1,0,0,1,0,0)"
font-family="Arial" font-size="12" font-weight="400" font-style="normal" 
>
<polyline fill="none" vector-effect="none" points="1759.17,1344.8 1759.18,1344.52 1759.2,1344.25 1759.23,1343.97 1759.28,1343.69 1759.33,1343.42 1759.41,1343.15 1759.49,1342.89 1759.59,1342.62 1759.7,1342.37 1759.82,1342.12 1759.95,1341.87 1760.09,1341.63 1760.25,1341.4 1760.42,1341.18 1760.59,1340.96 1760.78,1340.75 1760.98,1340.55 1761.18,1340.37 1761.39,1340.19 1761.62,1340.02 1761.85,1339.86 1762.08,1339.71 1762.33,1339.58 1762.58,1339.45 1762.83,1339.34 1763.09,1339.24 1763.36,1339.15 1763.63,1339.08 1763.9,1339.02 1764.17,1338.97 1764.45,1338.93 1764.73,1338.91 1765.01,1338.9 1765.29,1338.9 1765.56,1338.92 1765.84,1338.95 1766.12,1338.99 1766.39,1339.05 1766.66,1339.11 1766.93,1339.2 1767.19,1339.29 1767.45,1339.4 1767.7,1339.51 1767.95,1339.64 1768.19,1339.78 1768.42,1339.94 1768.65,1340.1 1768.87,1340.27 1769.08,1340.46 1769.28,1340.65 1769.47,1340.86 1769.65,1341.07 1769.82,1341.29 1769.98,1341.52 1770.13,1341.75 1770.27,1341.99 1770.4,1342.24 1770.51,1342.5 1770.61,1342.75 1770.71,1343.02 1770.78,1343.29 1770.85,1343.56 1770.9,1343.83 1770.94,1344.11 1770.97,1344.39 1770.98,1344.66 1770.98,1344.94 1770.97,1345.22 1770.94,1345.5 1770.9,1345.78 1770.85,1346.05 1770.78,1346.32 1770.71,1346.59 1770.61,1346.85 1770.51,1347.11 1770.4,1347.37 1770.27,1347.61 1770.13,1347.86 1769.98,1348.09 1769.82,1348.32 1769.65,1348.54 1769.47,1348.75 1769.28,1348.95 1769.08,1349.15 1768.87,1349.33 1768.65,1349.51 1768.42,1349.67 1768.19,1349.82 1767.95,1349.96 1767.7,1350.09 1767.45,1350.21 1767.19,1350.32 1766.93,1350.41 1766.66,1350.49 1766.39,1350.56 1766.12,1350.62 1765.84,1350.66 1765.56,1350.69 1765.29,1350.71 1765.01,1350.71 1764.73,1350.7 1764.45,1350.68 1764.17,1350.64 1763.9,1350.59 1763.63,1350.53 1763.36,1350.45 1763.09,1350.37 1762.83,1350.27 1762.58,1350.15 1762.33,1350.03 1762.08,1349.89 1761.85,1349.75 1761.62,1349.59 1761.39,1349.42 1761.18,1349.24 1760.98,1349.05 1760.78,1348.85 1760.59,1348.65 1760.42,1348.43 1760.25,1348.21 1760.09,1347.97 1759.95,1347.74 1759.82,1347.49 1759.7,1347.24 1759.59,1346.98 1759.49,1346.72 1759.41,1346.46 1759.33,1346.19 1759.28,1345.91 1759.23,1345.64 1759.2,1345.36 1759.18,1345.08 1759.17,1344.8 " />
</g>

<g fill="#000000" fill-opacity="1" stroke="#000000" stroke-opacity="1" stroke-width="2" stroke-linecap="round" stroke-linejoin="bevel" transform="matrix(1,0,0,1,0,0)"
font-family="Arial" font-size="12" font-weight="400" font-style="normal" 
>
<polyline fill="none" vector-effect="none" points="1751.58,1344.8 1778.58,1344.8 " />
<polyline fill="none" vector-effect="none" points="1765.08,1358.3 1765.08,1331.3 " />
<polyline fill="none" vector-effect="none" points="1738.08,1344.8 1732.17,1344.8 " />
<polyline fill="none" vector-effect="none" points="1792.08,1344.8 1797.98,1344.8 " />
<polyline fill="none" vector-effect="none" points="1765.08,1317.8 1765.08,1311.9 " />
<polyline fill="none" vector-effect="none" points="1765.08,1371.8 1765.08,1377.71 " />
</g>

<g fill="#000000" fill-opacity="1" stroke="#000000" stroke-opacity="1" stroke-width="5" stroke-linecap="round" stroke-linejoin="bevel" transform="matrix(1,0,0,1,0,0)"
font-family="Arial" font-size="12" font-weight="400" font-style="normal" 
>
<polyline fill="none" vector-effect="none" points="1889.09,1344.8 1889.1,1344.52 1889.12,1344.25 1889.15,1343.97 1889.2,1343.69 1889.26,1343.42 1889.33,1343.15 1889.41,1342.89 1889.51,1342.62 1889.62,1342.37 1889.74,1342.12 1889.87,1341.87 1890.02,1341.63 1890.17,1341.4 1890.34,1341.18 1890.51,1340.96 1890.7,1340.75 1890.9,1340.55 1891.1,1340.37 1891.32,1340.19 1891.54,1340.02 1891.77,1339.86 1892,1339.71 1892.25,1339.58 1892.5,1339.45 1892.75,1339.34 1893.01,1339.24 1893.28,1339.15 1893.55,1339.08 1893.82,1339.02 1894.09,1338.97 1894.37,1338.93 1894.65,1338.91 1894.93,1338.9 1895.21,1338.9 1895.49,1338.92 1895.76,1338.95 1896.04,1338.99 1896.31,1339.05 1896.58,1339.11 1896.85,1339.2 1897.11,1339.29 1897.37,1339.4 1897.62,1339.51 1897.87,1339.64 1898.11,1339.78 1898.34,1339.94 1898.57,1340.1 1898.79,1340.27 1899,1340.46 1899.2,1340.65 1899.39,1340.86 1899.57,1341.07 1899.74,1341.29 1899.9,1341.52 1900.05,1341.75 1900.19,1341.99 1900.32,1342.24 1900.43,1342.5 1900.54,1342.75 1900.63,1343.02 1900.7,1343.29 1900.77,1343.56 1900.82,1343.83 1900.86,1344.11 1900.89,1344.39 1900.9,1344.66 1900.9,1344.94 1900.89,1345.22 1900.86,1345.5 1900.82,1345.78 1900.77,1346.05 1900.7,1346.32 1900.63,1346.59 1900.54,1346.85 1900.43,1347.11 1900.32,1347.37 1900.19,1347.61 1900.05,1347.86 1899.9,1348.09 1899.74,1348.32 1899.57,1348.54 1899.39,1348.75 1899.2,1348.95 1899,1349.15 1898.79,1349.33 1898.57,1349.51 1898.34,1349.67 1898.11,1349.82 1897.87,1349.96 1897.62,1350.09 1897.37,1350.21 1897.11,1350.32 1896.85,1350.41 1896.58,1350.49 1896.31,1350.56 1896.04,1350.62 1895.76,1350.66 1895.49,1350.69 1895.21,1350.71 1894.93,1350.71 1894.65,1350.7 1894.37,1350.68 1894.09,1350.64 1893.82,1350.59 1893.55,1350.53 1893.28,1350.45 1893.01,1350.37 1892.75,1350.27 1892.5,1350.15 1892.25,1350.03 1892,1349.89 1891.77,1349.75 1891.54,1349.59 1891.32,1349.42 1891.1,1349.24 1890.9,1349.05 1890.7,1348.85 1890.51,1348.65 1890.34,1348.43 1890.17,1348.21 1890.02,1347.97 1889.87,1347.74 1889.74,1347.49 1889.62,1347.24 1889.51,1346.98 1889.41,1346.72 1889.33,1346.46 1889.26,1346.19 1889.2,1345.91 1889.15,1345.64 1889.12,1345.36 1889.1,1345.08 1889.09,1344.8 " />
</g>

<g fill="#000000" fill-opacity="1" stroke="#000000" stroke-opacity="1" stroke-width="2" stroke-linecap="round" stroke-linejoin="bevel" transform="matrix(1,0,0,1,0,0)"
font-family="Arial" font-size="12" font-weight="400" font-style="normal" 
>
<polyline fill="none" vector-effect="none" points="1881.5,1344.8 1908.5,1344.8 " />
<polyline fill="none" vector-effect="none" points="1895,1358.3 1895,1331.3 " />
<polyline fill="none" vector-effect="none" points="1868,1344.8 1862.09,1344.8 " />
<polyline fill="none" vector-effect="none" points="1922,1344.8 1927.9,1344.8 " />
<polyline fill="none" vector-effect="none" points="1895,1317.8 1895,1311.9 " />
<polyline fill="none" vector-effect="none" points="1895,1371.8 1895,1377.71 " />
</g>

<g fill="#000000" fill-opacity="1" stroke="#000000" stroke-opacity="1" stroke-width="5" stroke-linecap="round" stroke-linejoin="bevel" transform="matrix(1,0,0,1,0,0)"
font-family="Arial" font-size="12" font-weight="400" font-style="normal" 
>
<polyline fill="none" vector-effect="none" points="1658.91,1093.81 1511.27,1093.81 " />
<polyline fill="none" vector-effect="none" points="1481.75,1123.34 1481.75,1270.98 " />
<polyline fill="none" vector-effect="none" points="1511.27,1300.5 1658.91,1300.5 " />
<polyline fill="none" vector-effect="none" points="1688.44,1270.98 1688.44,1123.34 " />
<polyline fill="none" vector-effect="none" points="1428.46,990.473 1428.47,990.816 1428.49,991.159 1428.52,991.501 1428.57,991.842 1428.63,992.18 1428.7,992.516 1428.79,992.848 1428.89,993.177 1429,993.502 1429.12,993.823 1429.26,994.138 1429.4,994.448 1429.56,994.752 1429.74,995.05 1429.92,995.34 1430.11,995.624 1430.32,995.899 1430.53,996.167 1430.76,996.426 1431,996.675 1431.24,996.916 1431.5,997.147 1431.76,997.368 1432.03,997.578 1432.31,997.778 1432.6,997.967 1432.89,998.144 1433.19,998.31 1433.5,998.464 1433.81,998.607 1434.13,998.736 1434.45,998.854 1434.78,998.959 1435.11,999.051 1435.44,999.13 1435.78,999.196 1436.12,999.25 1436.46,999.289 1436.81,999.316 1437.15,999.329 1437.49,999.329 1437.84,999.316 1438.18,999.289 1438.52,999.25 1438.86,999.196 1439.2,999.13 1439.53,999.051 1439.86,998.959 1440.19,998.854 1440.51,998.736 1440.83,998.607 1441.14,998.464 1441.45,998.31 1441.75,998.144 1442.04,997.967 1442.33,997.778 1442.61,997.578 1442.88,997.368 1443.14,997.147 1443.4,996.916 1443.64,996.675 1443.88,996.426 1444.11,996.167 1444.32,995.899 1444.53,995.624 1444.72,995.34 1444.9,995.05 1445.08,994.752 1445.24,994.448 1445.38,994.138 1445.52,993.823 1445.64,993.502 1445.76,993.177 1445.85,992.848 1445.94,992.516 1446.01,992.18 1446.07,991.842 1446.12,991.501 1446.15,991.159 1446.17,990.816 1446.18,990.473 " />
<polyline fill="none" vector-effect="none" points="1469.8,990.473 1446.18,990.473 " />
<polyline fill="none" vector-effect="none" points="1469.8,990.473 1469.81,990.816 1469.83,991.159 1469.86,991.501 1469.91,991.842 1469.97,992.18 1470.04,992.516 1470.13,992.848 1470.22,993.177 1470.33,993.502 1470.46,993.823 1470.59,994.138 1470.74,994.448 1470.9,994.752 1471.07,995.05 1471.26,995.34 1471.45,995.624 1471.66,995.899 1471.87,996.167 1472.1,996.426 1472.33,996.675 1472.58,996.916 1472.83,997.147 1473.1,997.368 1473.37,997.578 1473.65,997.778 1473.94,997.967 1474.23,998.144 1474.53,998.31 1474.84,998.464 1475.15,998.607 1475.47,998.736 1475.79,998.854 1476.12,998.959 1476.45,999.051 1476.78,999.13 1477.12,999.196 1477.46,999.25 1477.8,999.289 1478.14,999.316 1478.49,999.329 1478.83,999.329 1479.17,999.316 1479.52,999.289 1479.86,999.25 1480.2,999.196 1480.53,999.13 1480.87,999.051 1481.2,998.959 1481.53,998.854 1481.85,998.736 1482.17,998.607 1482.48,998.464 1482.79,998.31 1483.09,998.144 1483.38,997.967 1483.67,997.778 1483.95,997.578 1484.22,997.368 1484.48,997.147 1484.74,996.916 1484.98,996.675 1485.22,996.426 1485.44,996.167 1485.66,995.899 1485.87,995.624 1486.06,995.34 1486.24,995.05 1486.41,994.752 1486.57,994.448 1486.72,994.138 1486.86,993.823 1486.98,993.502 1487.09,993.177 1487.19,992.848 1487.28,992.516 1487.35,992.18 1487.41,991.842 1487.46,991.501 1487.49,991.159 1487.51,990.816 1487.52,990.473 " />
<polyline fill="none" vector-effect="none" points="1487.52,990.473 1676.49,990.473 " />
<polyline fill="none" vector-effect="none" points="1694.21,990.473 1694.2,990.816 1694.18,991.159 1694.15,991.501 1694.1,991.842 1694.04,992.18 1693.97,992.516 1693.89,992.848 1693.79,993.177 1693.68,993.502 1693.55,993.823 1693.42,994.138 1693.27,994.448 1693.11,994.752 1692.94,995.05 1692.75,995.34 1692.56,995.624 1692.35,995.899 1692.14,996.167 1691.91,996.426 1691.68,996.675 1691.43,996.916 1691.18,997.147 1690.91,997.368 1690.64,997.578 1690.36,997.778 1690.08,997.967 1689.78,998.144 1689.48,998.31 1689.17,998.464 1688.86,998.607 1688.54,998.736 1688.22,998.854 1687.89,998.959 1687.56,999.051 1687.23,999.13 1686.89,999.196 1686.55,999.25 1686.21,999.289 1685.87,999.316 1685.52,999.329 1685.18,999.329 1684.84,999.316 1684.49,999.289 1684.15,999.25 1683.81,999.196 1683.48,999.13 1683.14,999.051 1682.81,998.959 1682.48,998.854 1682.16,998.736 1681.84,998.607 1681.53,998.464 1681.22,998.31 1680.92,998.144 1680.63,997.967 1680.34,997.778 1680.06,997.578 1679.79,997.368 1679.53,997.147 1679.27,996.916 1679.03,996.675 1678.79,996.426 1678.57,996.167 1678.35,995.899 1678.15,995.624 1677.95,995.34 1677.77,995.05 1677.6,994.752 1677.44,994.448 1677.29,994.138 1677.15,993.823 1677.03,993.502 1676.92,993.177 1676.82,992.848 1676.73,992.516 1676.66,992.18 1676.6,991.842 1676.55,991.501 1676.52,991.159 1676.5,990.816 1676.49,990.473 " />
<polyline fill="none" vector-effect="none" points="1694.21,990.473 1942.24,990.473 " />
<polyline fill="none" vector-effect="none" points="1942.24,990.473 1942.25,990.816 1942.27,991.159 1942.3,991.501 1942.35,991.841 1942.41,992.179 1942.48,992.515 1942.57,992.847 1942.66,993.176 1942.78,993.501 1942.9,993.822 1943.03,994.137 1943.18,994.447 1943.34,994.751 1943.51,995.048 1943.7,995.339 1943.89,995.622 1944.1,995.897 1944.31,996.165 1944.54,996.423 1944.77,996.673 1945.02,996.914 1945.27,997.145 1945.54,997.366 1945.81,997.576 1946.09,997.776 1946.37,997.965 1946.67,998.142 1946.97,998.308 1947.27,998.462 1947.59,998.605 1947.9,998.735 1948.23,998.852 1948.55,998.957 1948.89,999.05 1949.22,999.129 1949.56,999.195 1949.9,999.249 1950.24,999.289 1950.58,999.316 1950.92,999.329 1951.27,999.329 1951.61,999.316 1951.95,999.29 1952.29,999.25 1952.63,999.198 1952.97,999.132 1953.3,999.053 1953.63,998.961 1953.96,998.856 1954.28,998.739 1954.6,998.61 1954.91,998.468 1955.22,998.314 1955.52,998.148 1955.82,997.971 1956.1,997.783 1956.38,997.583 1956.65,997.373 1956.92,997.153 1957.17,996.922 1957.42,996.682 1957.65,996.433 1957.88,996.174 1958.1,995.907 1958.3,995.632 1958.5,995.349 " />
<polyline fill="none" vector-effect="none" points="1971.77,1020 1971.77,1050.72 " />
<polyline fill="none" vector-effect="none" points="2019.01,1108.58 2019.01,1123.35 " />
<polyline fill="none" vector-effect="none" points="2019.01,1123.35 1995.39,1123.35 " />
<polyline fill="none" vector-effect="none" points="1995.39,1123.35 1995.39,1270.98 " />
<polyline fill="none" vector-effect="none" points="2019.01,1270.98 1995.39,1270.98 " />
<polyline fill="none" vector-effect="none" points="2019.01,1270.98 2019.01,1285.75 " />
<polyline fill="none" vector-effect="none" points="1971.77,1374.33 1971.77,1343.61 " />
<polyline fill="none" vector-effect="none" points="1942.24,1403.86 1942.25,1403.52 1942.27,1403.17 1942.3,1402.83 1942.35,1402.49 1942.41,1402.15 1942.48,1401.82 1942.57,1401.48 1942.66,1401.16 1942.78,1400.83 1942.9,1400.51 1943.03,1400.19 1943.18,1399.88 1943.34,1399.58 1943.51,1399.28 1943.7,1398.99 1943.89,1398.71 1944.1,1398.43 1944.31,1398.17 1944.54,1397.91 1944.77,1397.66 1945.02,1397.42 1945.27,1397.19 1945.54,1396.97 1945.81,1396.76 1946.09,1396.56 1946.37,1396.37 1946.67,1396.19 1946.97,1396.02 1947.27,1395.87 1947.59,1395.73 1947.9,1395.6 1948.23,1395.48 1948.55,1395.37 1948.89,1395.28 1949.22,1395.2 1949.56,1395.14 1949.9,1395.08 1950.24,1395.04 1950.58,1395.02 1950.92,1395 1951.27,1395 1951.61,1395.01 1951.95,1395.04 1952.29,1395.08 1952.63,1395.13 1952.97,1395.2 1953.3,1395.28 1953.63,1395.37 1953.96,1395.47 1954.28,1395.59 1954.6,1395.72 1954.91,1395.86 1955.22,1396.02 1955.52,1396.18 1955.82,1396.36 1956.1,1396.55 1956.38,1396.75 1956.65,1396.96 1956.92,1397.18 1957.17,1397.41 1957.42,1397.65 1957.65,1397.9 1957.88,1398.16 1958.1,1398.42 1958.3,1398.7 1958.5,1398.98 " />
<polyline fill="none" vector-effect="none" points="1942.24,1403.86 1694.21,1403.86 " />
<polyline fill="none" vector-effect="none" points="1694.21,1403.86 1694.2,1403.52 1694.18,1403.17 1694.15,1402.83 1694.1,1402.49 1694.04,1402.15 1693.97,1401.82 1693.89,1401.48 1693.79,1401.15 1693.68,1400.83 1693.55,1400.51 1693.42,1400.19 1693.27,1399.88 1693.11,1399.58 1692.94,1399.28 1692.75,1398.99 1692.56,1398.71 1692.35,1398.43 1692.14,1398.16 1691.91,1397.91 1691.68,1397.66 1691.43,1397.42 1691.18,1397.18 1690.91,1396.96 1690.64,1396.75 1690.36,1396.55 1690.08,1396.36 1689.78,1396.19 1689.48,1396.02 1689.17,1395.87 1688.86,1395.72 1688.54,1395.59 1688.22,1395.48 1687.89,1395.37 1687.56,1395.28 1687.23,1395.2 1686.89,1395.13 1686.55,1395.08 1686.21,1395.04 1685.87,1395.02 1685.52,1395 1685.18,1395 1684.84,1395.02 1684.49,1395.04 1684.15,1395.08 1683.81,1395.13 1683.48,1395.2 1683.14,1395.28 1682.81,1395.37 1682.48,1395.48 1682.16,1395.59 1681.84,1395.72 1681.53,1395.87 1681.22,1396.02 1680.92,1396.19 1680.63,1396.36 1680.34,1396.55 1680.06,1396.75 1679.79,1396.96 1679.53,1397.18 1679.27,1397.42 1679.03,1397.66 1678.79,1397.91 1678.57,1398.16 1678.35,1398.43 1678.15,1398.71 1677.95,1398.99 1677.77,1399.28 1677.6,1399.58 1677.44,1399.88 1677.29,1400.19 1677.15,1400.51 1677.03,1400.83 1676.92,1401.15 1676.82,1401.48 1676.73,1401.82 1676.66,1402.15 1676.6,1402.49 1676.55,1402.83 1676.52,1403.17 1676.5,1403.52 1676.49,1403.86 " />
<polyline fill="none" vector-effect="none" points="1676.49,1403.86 1487.52,1403.86 " />
<polyline fill="none" vector-effect="none" points="1469.8,1403.86 1469.81,1403.52 1469.83,1403.18 1469.86,1402.84 1469.9,1402.5 1469.96,1402.17 1470.03,1401.84 1470.11,1401.51 1470.21,1401.18 1470.32,1400.86 1470.44,1400.54 1470.57,1400.23 1470.72,1399.92 1470.87,1399.62 1471.04,1399.32 1471.22,1399.04 1471.41,1398.75 1471.61,1398.48 1471.82,1398.21 1472.04,1397.95 1472.27,1397.71 1472.51,1397.46 1472.76,1397.23 1473.02,1397.01 1473.28,1396.8 1473.56,1396.6 1473.84,1396.41 1474.13,1396.23 1474.42,1396.06 1474.72,1395.91 1475.03,1395.76 1475.34,1395.63 1475.66,1395.51 1475.98,1395.4 1476.31,1395.3 1476.64,1395.22 1476.97,1395.15 1477.31,1395.09 1477.64,1395.04 1477.98,1395.01 1478.32,1394.99 1478.66,1394.98 1479,1394.99 1479.34,1395.01 1479.68,1395.04 1480.01,1395.09 1480.35,1395.15 1480.68,1395.22 1481.01,1395.3 1481.33,1395.4 1481.66,1395.51 1481.97,1395.63 1482.29,1395.76 1482.59,1395.91 1482.9,1396.06 1483.19,1396.23 1483.48,1396.41 1483.76,1396.6 1484.03,1396.8 1484.3,1397.01 1484.56,1397.23 1484.81,1397.46 1485.05,1397.71 1485.28,1397.95 1485.5,1398.21 1485.71,1398.48 1485.91,1398.75 1486.1,1399.04 1486.28,1399.32 1486.45,1399.62 1486.6,1399.92 1486.75,1400.23 1486.88,1400.54 1487,1400.86 1487.11,1401.18 1487.2,1401.51 1487.29,1401.84 1487.36,1402.17 1487.42,1402.5 1487.46,1402.84 1487.49,1403.18 1487.51,1403.52 1487.52,1403.86 " />
<polyline fill="none" vector-effect="none" points="1469.8,1403.86 1446.18,1403.86 " />
<polyline fill="none" vector-effect="none" points="1428.46,1403.86 1428.47,1403.52 1428.49,1403.18 1428.52,1402.84 1428.56,1402.5 1428.62,1402.17 1428.69,1401.84 1428.77,1401.51 1428.87,1401.18 1428.98,1400.86 1429.1,1400.54 1429.23,1400.23 1429.38,1399.92 1429.53,1399.62 1429.7,1399.32 1429.88,1399.04 1430.07,1398.75 1430.27,1398.48 1430.48,1398.21 1430.7,1397.95 1430.93,1397.71 1431.17,1397.46 1431.42,1397.23 1431.68,1397.01 1431.94,1396.8 1432.22,1396.6 1432.5,1396.41 1432.79,1396.23 1433.08,1396.06 1433.39,1395.91 1433.69,1395.76 1434.01,1395.63 1434.32,1395.51 1434.64,1395.4 1434.97,1395.3 1435.3,1395.22 1435.63,1395.15 1435.97,1395.09 1436.3,1395.04 1436.64,1395.01 1436.98,1394.99 1437.32,1394.98 1437.66,1394.99 1438,1395.01 1438.34,1395.04 1438.67,1395.09 1439.01,1395.15 1439.34,1395.22 1439.67,1395.3 1440,1395.4 1440.32,1395.51 1440.64,1395.63 1440.95,1395.76 1441.26,1395.91 1441.56,1396.06 1441.85,1396.23 1442.14,1396.41 1442.42,1396.6 1442.7,1396.8 1442.96,1397.01 1443.22,1397.23 1443.47,1397.46 1443.71,1397.71 1443.94,1397.95 1444.16,1398.21 1444.37,1398.48 1444.57,1398.75 1444.76,1399.04 1444.94,1399.32 1445.11,1399.62 1445.26,1399.92 1445.41,1400.23 1445.54,1400.54 1445.66,1400.86 1445.77,1401.18 1445.87,1401.51 1445.95,1401.84 1446.02,1402.17 1446.08,1402.5 1446.12,1402.84 1446.15,1403.18 1446.17,1403.52 1446.18,1403.86 " />
<polyline fill="none" vector-effect="none" points="1428.46,1403.86 1404.84,1403.86 " />
<polyline fill="none" vector-effect="none" points="1387.12,1403.86 1387.13,1403.52 1387.15,1403.18 1387.18,1402.84 1387.22,1402.5 1387.28,1402.17 1387.35,1401.84 1387.44,1401.51 1387.53,1401.18 1387.64,1400.86 1387.76,1400.54 1387.89,1400.23 1388.04,1399.92 1388.19,1399.62 1388.36,1399.32 1388.54,1399.04 1388.73,1398.75 1388.93,1398.48 1389.14,1398.21 1389.36,1397.95 1389.59,1397.71 1389.83,1397.46 1390.08,1397.23 1390.34,1397.01 1390.61,1396.8 1390.88,1396.6 1391.16,1396.41 1391.45,1396.23 1391.75,1396.06 1392.05,1395.91 1392.35,1395.76 1392.67,1395.63 1392.98,1395.51 1393.31,1395.4 1393.63,1395.3 1393.96,1395.22 1394.29,1395.15 1394.63,1395.09 1394.96,1395.04 1395.3,1395.01 1395.64,1394.99 1395.98,1394.98 1396.32,1394.99 1396.66,1395.01 1397,1395.04 1397.34,1395.09 1397.67,1395.15 1398,1395.22 1398.33,1395.3 1398.66,1395.4 1398.98,1395.51 1399.3,1395.63 1399.61,1395.76 1399.92,1395.91 1400.22,1396.06 1400.51,1396.23 1400.8,1396.41 1401.08,1396.6 1401.36,1396.8 1401.62,1397.01 1401.88,1397.23 1402.13,1397.46 1402.37,1397.71 1402.6,1397.95 1402.82,1398.21 1403.03,1398.48 1403.23,1398.75 1403.42,1399.04 1403.6,1399.32 1403.77,1399.62 1403.93,1399.92 1404.07,1400.23 1404.2,1400.54 1404.32,1400.86 1404.43,1401.18 1404.53,1401.51 1404.61,1401.84 1404.68,1402.17 1404.74,1402.5 1404.78,1402.84 1404.82,1403.18 1404.83,1403.52 1404.84,1403.86 " />
<polyline fill="none" vector-effect="none" points="1387.12,1403.86 1339.88,1403.86 " />
<polyline fill="none" vector-effect="none" points="1310.35,1374.33 1310.35,1332.98 " />
<polyline fill="none" vector-effect="none" points="1310.35,1315.27 1310.7,1315.27 1311.04,1315.29 1311.38,1315.33 1311.72,1315.37 1312.06,1315.43 1312.39,1315.51 1312.73,1315.59 1313.06,1315.69 1313.38,1315.8 1313.7,1315.93 1314.02,1316.06 1314.33,1316.21 1314.63,1316.37 1314.93,1316.54 1315.22,1316.72 1315.5,1316.92 1315.78,1317.12 1316.05,1317.34 1316.3,1317.57 1316.55,1317.8 1316.8,1318.05 1317.03,1318.3 1317.25,1318.56 1317.46,1318.84 1317.66,1319.12 1317.85,1319.4 1318.02,1319.7 1318.19,1320 1318.34,1320.3 1318.49,1320.62 1318.62,1320.94 1318.73,1321.26 1318.84,1321.59 1318.93,1321.92 1319.01,1322.25 1319.08,1322.59 1319.13,1322.93 1319.17,1323.27 1319.2,1323.61 1319.21,1323.95 1319.21,1324.3 1319.2,1324.64 1319.17,1324.98 1319.13,1325.32 1319.08,1325.66 1319.01,1326 1318.93,1326.34 1318.84,1326.67 1318.73,1326.99 1318.62,1327.32 1318.49,1327.63 1318.34,1327.95 1318.19,1328.25 1318.02,1328.55 1317.85,1328.85 1317.66,1329.14 1317.46,1329.42 1317.25,1329.69 1317.03,1329.95 1316.8,1330.2 1316.55,1330.45 1316.3,1330.69 1316.05,1330.91 1315.78,1331.13 1315.5,1331.33 1315.22,1331.53 1314.93,1331.71 1314.63,1331.88 1314.33,1332.04 1314.02,1332.19 1313.7,1332.33 1313.38,1332.45 1313.06,1332.56 1312.73,1332.66 1312.39,1332.75 1312.06,1332.82 1311.72,1332.88 1311.38,1332.92 1311.04,1332.96 1310.7,1332.98 1310.35,1332.98 " />
<polyline fill="none" vector-effect="none" points="1310.35,1315.27 1310.35,1079.05 " />
<polyline fill="none" vector-effect="none" points="1310.35,1079.05 1310.7,1079.04 1311.04,1079.02 1311.38,1078.99 1311.72,1078.94 1312.06,1078.88 1312.39,1078.81 1312.73,1078.72 1313.06,1078.62 1313.38,1078.51 1313.7,1078.39 1314.02,1078.25 1314.33,1078.1 1314.63,1077.94 1314.93,1077.77 1315.22,1077.59 1315.5,1077.4 1315.78,1077.19 1316.05,1076.97 1316.3,1076.75 1316.55,1076.51 1316.8,1076.27 1317.03,1076.01 1317.25,1075.75 1317.46,1075.48 1317.66,1075.2 1317.85,1074.91 1318.02,1074.62 1318.19,1074.32 1318.34,1074.01 1318.49,1073.7 1318.62,1073.38 1318.73,1073.06 1318.84,1072.73 1318.93,1072.4 1319.01,1072.06 1319.08,1071.73 1319.13,1071.39 1319.17,1071.05 1319.2,1070.7 1319.21,1070.36 1319.21,1070.02 1319.2,1069.67 1319.17,1069.33 1319.13,1068.99 1319.08,1068.65 1319.01,1068.31 1318.93,1067.98 1318.84,1067.65 1318.73,1067.32 1318.62,1067 1318.49,1066.68 1318.34,1066.37 1318.19,1066.06 1318.02,1065.76 1317.85,1065.47 1317.66,1065.18 1317.46,1064.9 1317.25,1064.63 1317.03,1064.36 1316.8,1064.11 1316.55,1063.86 1316.3,1063.63 1316.05,1063.4 1315.78,1063.19 1315.5,1062.98 1315.22,1062.79 1314.93,1062.6 1314.63,1062.43 1314.33,1062.27 1314.02,1062.12 1313.7,1061.99 1313.38,1061.86 1313.06,1061.75 1312.73,1061.65 1312.39,1061.57 1312.06,1061.5 1311.72,1061.44 1311.38,1061.39 1311.04,1061.36 1310.7,1061.34 1310.35,1061.33 " />
<polyline fill="none" vector-effect="none" points="1310.35,1061.33 1310.35,1020 " />
<polyline fill="none" vector-effect="none" points="1387.12,990.473 1339.88,990.473 " />
<polyline fill="none" vector-effect="none" points="1387.12,990.473 1387.13,990.816 1387.15,991.159 1387.18,991.501 1387.23,991.842 1387.29,992.18 1387.36,992.516 1387.45,992.848 1387.55,993.177 1387.66,993.502 1387.78,993.823 1387.92,994.138 1388.07,994.448 1388.23,994.752 1388.4,995.05 1388.58,995.34 1388.78,995.624 1388.98,995.899 1389.2,996.167 1389.42,996.426 1389.66,996.675 1389.9,996.916 1390.16,997.147 1390.42,997.368 1390.69,997.578 1390.97,997.778 1391.26,997.967 1391.55,998.144 1391.85,998.31 1392.16,998.464 1392.47,998.607 1392.79,998.736 1393.11,998.854 1393.44,998.959 1393.77,999.051 1394.11,999.13 1394.44,999.196 1394.78,999.25 1395.12,999.289 1395.47,999.316 1395.81,999.329 1396.15,999.329 1396.5,999.316 1396.84,999.289 1397.18,999.25 1397.52,999.196 1397.86,999.13 1398.19,999.051 1398.52,998.959 1398.85,998.854 1399.17,998.736 1399.49,998.607 1399.8,998.464 1400.11,998.31 1400.41,998.144 1400.7,997.967 1400.99,997.778 1401.27,997.578 1401.54,997.368 1401.81,997.147 1402.06,996.916 1402.31,996.675 1402.54,996.426 1402.77,996.167 1402.98,995.899 1403.19,995.624 1403.38,995.34 1403.57,995.05 1403.74,994.752 1403.9,994.448 1404.05,994.138 1404.18,993.823 1404.31,993.502 1404.42,993.177 1404.52,992.848 1404.6,992.516 1404.67,992.18 1404.73,991.842 1404.78,991.501 1404.81,991.159 1404.83,990.816 1404.84,990.473 " />
</g>

<g fill="none" stroke="#000000" stroke-opacity="1" stroke-width="1" stroke-linecap="square" stroke-linejoin="bevel" transform="matrix(1,0,0,1,0,0)"
font-family="Arial" font-size="12" font-weight="400" font-style="normal" 
>
</g>
</g>
</svg>
